<svg xmlns="http://www.w3.org/2000/svg" xmlns:xlink="http://www.w3.org/1999/xlink" version="1.1"><metadata>Created by FontForge 20170924 at Tue Dec 21 18:30:08 2010 By www-data Copyright (c) 2009 by Jasper de Waard. All rights reserved.</metadata><defs><font id="ExpletusSans-Bold" horiz-adv-x="527"><font-face x-height="517" ascent="800" bbox="-35 -293 1089 903" cap-height="727" descent="-200" font-family="Expletus Sans" font-stretch="normal" font-weight="700" panose-1="2 0 0 0 0 0 0 0 0 0" underline-position="-100" underline-thickness="50" unicode-range="U+0020-2122" units-per-em="1000"/><glyph glyph-name=".notdef" horiz-adv-x="257"/><glyph d="M296 530q27 0 59 -5.5t62 -16.5l-34 -93q-24 6 -47 9t-40 3q-54 0 -87 -45t-33 -123q0 -79 33 -124t87 -45q21 0 45 5.5t56 18.5l34 -92q-39 -18 -73.5 -26.5t-61.5 -8.5q-52 0 -100.5 15.5t-85.5 48.5t-59.5 84.5t-22.5 123.5q0 68 22.5 119t59.5 84.5t85.5 50.5 t100.5 17z" glyph-name="c" horiz-adv-x="430" unicode="c"/><glyph d="M570 259q0 -64 -23.5 -114.5t-61 -85.5t-86 -53.5t-97.5 -18.5q-53 0 -101.5 18t-85.5 52.5t-59 85.5t-22 116q0 70 25.5 121.5t65 84.5t87 49t90.5 16q60 0 109 -20t84.5 -56t55 -85.5t19.5 -109.5zM302 89q29 0 51.5 13.5t37.5 36.5t22.5 54t7.5 66t-7.5 65.5 t-22.5 53.5t-37.5 36.5t-51.5 13.5t-51.5 -13.5t-37.5 -36.5t-23 -53.5t-8 -65.5q0 -38 8.5 -69t24 -53.5t38 -35t49.5 -12.5z" glyph-name="o" horiz-adv-x="610" unicode="o"/><glyph d="M261 -13q-54 0 -97 20.5t-72 57.5t-44.5 87.5t-15.5 109.5q0 53 18 101t48.5 84t70.5 57.5t83 21.5q26 0 50.5 -3.5t63.5 -14.5q-14 -35 -32 -56.5t-43 -23.5q-31 -2 -52 -15t-34 -34.5t-19 -51.5t-6 -65t7 -66t20.5 -54.5t33.5 -37.5t45 -14q55 0 116 70v598h139v-632 q0 -28 3.5 -59.5t11.5 -66.5h-107q-13 7 -21.5 20t-13.5 27l-5 23l-17 -22q-39 -35 -70.5 -48t-60.5 -13z" glyph-name="d" horiz-adv-x="619" unicode="d"/><glyph d="M105 418h-83v79l83 20v28q0 49 15.5 89.5t44 69t69 44t90.5 15.5q25 0 59.5 -6.5t73.5 -23.5l-31 -89q-29 8 -49.5 12t-37.5 4q-49 0 -75.5 -31.5t-26.5 -83.5v-545h-132v418zM415 517v-99h-144q5 16 13 34t20 32t28.5 23.5t38.5 9.5h44z" glyph-name="f" horiz-adv-x="437" unicode="f"/><glyph d="M73 0v758h139v-758h-139zM396 367q0 25 -10.5 41t-33.5 16q-9 0 -15 -2t-19 -3q-11 -1 -21 4.5t-18.5 15t-16 21.5t-14.5 26q49 28 84.5 36t63.5 8q26 0 51 -10t44.5 -30t31.5 -50t12 -71v-369h-139v367z" glyph-name="h" horiz-adv-x="608" unicode="h"/><glyph d="M70 0v517h140v-517h-140zM58 667q0 35 23.5 59.5t58.5 24.5t58.5 -24.5t23.5 -59.5t-23.5 -58.5t-58.5 -23.5t-58.5 23.5t-23.5 58.5z" glyph-name="i" horiz-adv-x="280" unicode="i"/><glyph d="M212 0h-139v758h139v-758zM407 338l199 -338h-154l-118 233l-7 24l-14 -20l-54 -57q-11 69 9 126t56 102l90 109h161z" glyph-name="k" horiz-adv-x="624" unicode="k"/><glyph d="M214 0h-139v758h139v-758z" glyph-name="l" horiz-adv-x="282" unicode="l"/><glyph glyph-name="space" horiz-adv-x="257"/><glyph d="M176 517q24 -27 31.5 -53.5t7.5 -56.5v-407h-140v391q0 28 -3.5 59.5t-11.5 66.5h116zM394 367q0 25 -9 41t-35 16q-9 0 -18 -2t-21 -3t-22.5 4.5t-19.5 15.5t-17 22.5t-15 26.5q54 22 90.5 32t71.5 10q26 0 50.5 -10t43 -30t30 -50t11.5 -71v-369h-140v367zM713 367 q0 25 -11 41t-39 16q-9 0 -19.5 -2.5t-23.5 -3.5q-12 -1 -23 4.5t-20.5 15.5t-17.5 22.5t-15 26.5q55 23 93 33t73 10q26 0 51.5 -10t45.5 -30t32.5 -50t12.5 -71v-369h-139v367z" glyph-name="m" horiz-adv-x="930" unicode="m"/><glyph d="M104 418h-83v79l83 20v123l132 43v-485q0 -51 21.5 -79.5t56.5 -28.5q14 0 32.5 3t44.5 12l29 -91q-38 -13 -66.5 -20t-53.5 -7q-96 0 -146 54t-50 157v220zM370 418q-22 0 -38.5 9.5t-28.5 23.5t-20 31.5t-13 34.5h145v-99h-45z" glyph-name="t" horiz-adv-x="455" unicode="t"/><glyph d="M427 0q-23 27 -31 53.5t-8 56.5v407h140v-391q0 -58 16 -126h-117zM205 150q0 -25 10 -41t36 -16q10 0 19 2.5t23 3.5q12 1 21.5 -5t18.5 -15.5t16.5 -21.5t14.5 -24q-50 -26 -87 -36t-72 -10q-26 0 -51 10t-44.5 30t-31.5 50t-12 71v369h139v-367z" glyph-name="u" horiz-adv-x="613" unicode="u"/><glyph d="M200 0l-194 517h147l116 -366l7 -30l7 30l115 366h145l-194 -517h-149z" glyph-name="v" horiz-adv-x="547" unicode="v"/><glyph d="M534 0l-183 517h148l104 -366l7 -30l7 30l103 366h145l-182 -517h-149zM348 0h-146l-182 517h147l104 -366l7 -30l7 30l74 196q12 -22 22.5 -53t16 -66.5t3 -72t-15.5 -68.5z" glyph-name="w" horiz-adv-x="872" unicode="w"/><glyph d="M11 517h159l78 -145l6 -21l8 21l79 145h152l-171 -261l181 -256h-156q-38 63 -78.5 125t-82.5 125zM153 0h-151l154 220q10 -12 20.5 -29t17 -37.5t6.5 -42.5t-10 -43z" glyph-name="x" horiz-adv-x="514" unicode="x"/><glyph d="M388 317q3 23 -2 44t-16.5 37t-29 25.5t-40.5 9.5q-21 0 -41.5 -9t-37.5 -28.5t-27.5 -50t-10.5 -73.5q0 -87 39 -134.5t102 -47.5q35 0 68.5 8.5t77.5 28.5l35 -93q-54 -26 -101.5 -36.5t-94.5 -10.5q-69 0 -118.5 25t-82 64.5t-48 89.5t-15.5 101q0 62 20.5 111 t56 82.5t83.5 51.5t102 18q55 0 101 -22t74 -61t34.5 -93.5t-15.5 -118.5h-280q11 35 31.5 58.5t46.5 23.5h89z" glyph-name="e" horiz-adv-x="564" unicode="e"/><glyph d="M353 530q54 0 96.5 -21t72 -57.5t45 -87t15.5 -109.5q0 -53 -18 -101t-48.5 -84t-70.5 -57.5t-83 -21.5q-26 0 -50.5 3.5t-63.5 14.5q14 35 31.5 56.5t42.5 23.5q62 4 87 49.5t25 116.5q0 35 -7.5 66t-21 54.5t-33 37.5t-44.5 14q-56 0 -116 -70v-598h-139v632 q0 28 -3.5 59.5t-11.5 66.5h107q13 -8 22 -22t15 -29l3 -20l15 20q40 37 71.5 50.5t61.5 13.5z" glyph-name="p" horiz-adv-x="621" unicode="p"/><glyph d="M398 0q-14 8 -22.5 21.5t-14.5 28.5l-3 20l-12 -17q-45 -41 -79 -53.5t-72 -12.5q-36 0 -64.5 12.5t-49 33.5t-31 48t-10.5 57q0 31 13 60t44.5 52.5t84.5 40t132 22.5q-5 -35 -20.5 -61t-47.5 -32q-38 -6 -55 -25t-17 -44q0 -26 18.5 -43.5t44.5 -17.5q29 0 58 19.5 t55 50.5v151q0 52 -28.5 83t-81.5 31q-25 0 -53.5 -5t-63.5 -18l-34 88q45 20 92 29t82 9q107 0 164.5 -55.5t57.5 -161.5v-185q0 -28 3.5 -59.5t12.5 -66.5h-103z" glyph-name="a" horiz-adv-x="542" unicode="a"/><glyph d="M62 125q47 -18 83 -25t68 -7q37 0 54 15.5t17 34.5q0 22 -18 37t-45 28t-58 26t-58 31.5t-45 45t-18 66.5q0 24 9.5 50.5t31.5 48t57.5 36t86.5 14.5q34 0 69.5 -5t83.5 -21l-32 -90q-39 10 -63 13.5t-49 3.5q-29 0 -45.5 -11.5t-16.5 -32.5t18 -36t45 -28t58 -27t58 -33 t45 -45.5t18 -65.5q0 -36 -15 -65.5t-40 -50t-57.5 -31.5t-67.5 -11q-39 0 -89 7t-117 35z" glyph-name="s" horiz-adv-x="436" unicode="s"/><glyph d="M222 48q0 -47 -9.5 -85t-32 -72.5t-60.5 -68t-96 -71.5l-59 73q37 32 60 57t36 50t17.5 52.5t4.5 64.5v469h139v-469zM71 667q0 35 23.5 59.5t58.5 24.5t59 -24.5t24 -59.5t-24 -58.5t-59 -23.5t-58.5 23.5t-23.5 58.5z" glyph-name="j" horiz-adv-x="295" unicode="j"/><glyph d="M42 67q0 17 6.5 32.5t17.5 27t26 18t33 6.5q35 0 58.5 -24.5t23.5 -59.5t-23.5 -58.5t-58.5 -23.5t-59 23.5t-24 58.5z" glyph-name="period" horiz-adv-x="273" unicode="."/><glyph d="M330 425q-17 -1 -29 5.5t-21 17t-17 25t-15 29.5q29 12 58.5 18t55.5 6q48 0 86 -22t64.5 -57.5t41 -80t14.5 -89.5q0 -61 -19 -114.5t-55 -93t-87 -62t-114 -22.5q-55 0 -107 12.5t-113 44.5v716h139v-660q23 -6 42 -8t39 -2q29 0 52.5 14t40 39t25 60t8.5 76 q0 24 -4.5 50.5t-15 48.5t-27.5 36t-42 13z" glyph-name="b" horiz-adv-x="610" unicode="b"/><glyph d="M127 -146q26 0 45 12t34 35t27.5 57t27.5 79l148 480h143l-183 -506q-25 -65 -47 -113.5t-48 -80.5t-61 -48.5t-86 -16.5q-20 1 -43.5 4.5t-47.5 14.5l32 90q17 -5 31 -6t28 -1zM235 281q10 -33 11 -71t-5 -74.5t-16.5 -69t-23.5 -53.5l-186 504h150z" glyph-name="y" horiz-adv-x="600" unicode="y"/><glyph d="M153 517q24 -27 32 -53.5t8 -56.5v-407h-140v391q0 58 -16 126h116zM376 367q0 25 -10 41t-36 16q-10 0 -19 -2.5t-23 -3.5q-12 -1 -22 5t-18.5 15.5t-16 21.5t-14.5 24q50 26 87 36t72 10q26 0 51 -10t44.5 -30t31.5 -50t12 -71v-369h-139v367z" glyph-name="n" horiz-adv-x="578" unicode="n"/><glyph d="M156 517q8 -7 17.5 -27.5t13.5 -46.5l2 -24l10 24q20 40 52.5 62t64.5 22q29 0 65 -12l-16 -113q-20 6 -33.5 8t-25.5 2q-26 0 -46 -13t-34 -35.5t-21.5 -54t-7.5 -68.5v-241h-131v391q0 28 -3.5 59.5t-12.5 66.5h106z" glyph-name="r" horiz-adv-x="391" unicode="r"/><glyph d="M224 159l-53 -159h-141l261 727h140l261 -727h-148l-180 541l-8 37l-9 -39l-85 -259l-12 -20l15 2h76q22 0 38 -10t28 -25t20.5 -33.5t13.5 -34.5h-217z" glyph-name="A" horiz-adv-x="722" unicode="A"/><glyph d="M435 -12q-93 0 -165 29t-121.5 80t-75 119.5t-25.5 147.5q0 78 26.5 146.5t76.5 119.5t122 80.5t162 29.5q42 0 85 -8t91 -26l-36 -92q-44 13 -75 18t-65 5q-60 0 -104 -23.5t-73 -61.5t-43.5 -87t-14.5 -101t14.5 -101t43.5 -87.5t73 -61.5t104 -23q67 0 139 34l37 -91 q-45 -23 -89.5 -34.5t-86.5 -11.5z" glyph-name="C" horiz-adv-x="602" unicode="C"/><glyph d="M363 91q57 0 98.5 24t68.5 63t39.5 88t12.5 99q0 59 -15.5 109t-48.5 86t-84.5 56.5t-123.5 20.5q-20 0 -41.5 -2t-44.5 -6v-629h-141v714q67 14 125 20t102 6q100 0 178.5 -25.5t133 -73.5t83 -117.5t28.5 -158.5q0 -79 -27 -148t-74 -120t-112.5 -80t-141.5 -29 q-14 0 -25.5 0.5t-24.5 2.5t-28.5 5t-37.5 9q6 13 15 28t21 28t28 21.5t37 8.5z" glyph-name="D" horiz-adv-x="747" unicode="D"/><glyph d="M83 727h436v-103h-293v-521h309v-103h-452v727zM264 331q5 16 13 34t20 33t28.5 24.5t38.5 9.5h121v-101h-221z" glyph-name="E" horiz-adv-x="588" unicode="E"/><glyph d="M441 637q-60 0 -106 -22.5t-77.5 -60t-47.5 -87.5t-16 -104q0 -52 16 -101t46.5 -87t76 -61t105.5 -23q22 0 43 1.5t53 9.5v235h128v-300q-27 -12 -57.5 -21.5t-60.5 -15.5t-57.5 -9t-48.5 -3q-93 0 -166.5 29t-124.5 80t-78 119.5t-27 146.5q0 79 28 147.5t80 119.5 t125.5 80.5t165.5 29.5q42 0 98 -10t113 -34l-37 -96q-57 22 -98 29.5t-76 7.5z" glyph-name="G" horiz-adv-x="724" unicode="G"/><glyph d="M264 330q5 16 13 34.5t20 33.5t28.5 25t38.5 10h177v294h141v-727h-141v330h-277zM83 727h143v-727h-143v727z" glyph-name="H" horiz-adv-x="764" unicode="H"/><glyph d="M222 0h-139v727h139v-727z" glyph-name="I" horiz-adv-x="306" unicode="I"/><glyph d="M290 128q0 -70 -15 -119t-45 -87.5t-74 -71.5t-102 -72l-64 82q37 31 66.5 57t50 56t31 66.5t10.5 88.5v599h142v-599z" glyph-name="J" horiz-adv-x="369" unicode="J"/><glyph d="M434 436l259 -436h-164l-164 322l-7 24l-12 -22l-63 -81q-9 33 -8 68t8.5 68.5t21 63.5t31.5 54l165 230h157zM83 0v727h143v-727h-143z" glyph-name="K" horiz-adv-x="709" unicode="K"/><glyph d="M82 727h144v-623h262v-104h-406v727z" glyph-name="L" horiz-adv-x="531" unicode="L"/><glyph d="M144 727h181l159 -561l7 -36l8 36l158 561h182l68 -727h-131l-39 548l-3 48l-12 -48l-158 -538h-147l-160 539l-12 47l-3 -47l-37 -549h-131z" glyph-name="M" horiz-adv-x="982" unicode="M"/><glyph d="M230 509l-16 36l2 -34v-511h-122v727h138l307 -489l14 -40l-2 40v489h126v-727h-126z" glyph-name="N" horiz-adv-x="778" unicode="N"/><glyph d="M405 639q-52 0 -91 -22t-65.5 -60t-40 -88t-13.5 -105q0 -52 13.5 -101.5t40 -88t65.5 -62t91 -23.5q41 0 79 18.5t67 53.5t46.5 86t17.5 117q0 59 -14.5 109.5t-41.5 87t-66 57.5t-88 21zM405 -14q-87 0 -154 29t-113.5 79.5t-70.5 119.5t-24 150q0 78 24.5 147 t71 120.5t113.5 81t153 29.5q98 0 166.5 -34t112 -88.5t63 -122t19.5 -133.5q0 -74 -24 -142t-69.5 -120.5t-113 -84t-154.5 -31.5z" glyph-name="O" horiz-adv-x="789" unicode="O"/><glyph d="M597 513q0 -50 -19.5 -89.5t-52 -68t-74 -45.5t-86.5 -21q-23 -2 -48 -0.5t-53 9.5q6 14 13.5 29.5t18 28.5t24 22t30.5 11q21 2 39 12.5t31.5 27t21.5 38.5t8 46q0 26 -10 48.5t-28.5 39.5t-44 27t-56.5 10q-14 0 -23.5 -0.5t-18.5 -1t-19 -2t-23 -2.5v-632h-144v718 q40 7 71 11.5t56.5 7t49.5 3.5t51 1q61 0 113 -16t90.5 -45.5t60.5 -71.5t22 -95z" glyph-name="P" horiz-adv-x="643" unicode="P"/><glyph d="M394 -14q-81 0 -145.5 28t-110.5 78t-70.5 119.5t-24.5 152.5q0 82 25.5 151t72.5 119.5t114 79t150 28.5q84 0 151 -28t113.5 -78.5t71.5 -120t25 -151.5q0 -69 -25 -133.5t-66 -116.5l62 -64l-76 -76l-247 252l76 77l80 -82l13 -21l6 26q14 32 20 68t6 70 q0 55 -13.5 105t-40 88t-65.5 60t-91 22t-91 -22t-65.5 -60t-40 -88t-13.5 -105q0 -52 13 -101.5t38.5 -88t62.5 -62t85 -23.5q7 0 19.5 1t21.5 1q16 0 32 -5.5t29.5 -14t24.5 -18.5t19 -19q-36 -24 -73.5 -36t-72.5 -12z" glyph-name="Q" horiz-adv-x="781" unicode="Q"/><glyph d="M597 518q0 -60 -27 -104t-72 -71l-28 -11q4 -2 11 -5t11 -6q30 -26 47 -61.5t29.5 -77t25 -88t34.5 -94.5h-147q-18 38 -28.5 81.5t-22.5 84.5t-28 76t-44 57q-21 -2 -44.5 -0.5t-49.5 9.5q6 14 13.5 29.5t18 29t24 22.5t30.5 11q21 2 39 11.5t31.5 25t21.5 36.5t8 45 q0 26 -11 48t-29.5 38t-44 25t-54.5 9q-14 0 -23.5 -0.5t-18.5 -1t-19 -2t-23 -2.5v-632h-144v718q40 7 71 11.5t56.5 7t49.5 3.5t51 1q59 0 111 -15t91 -43.5t61.5 -70t22.5 -94.5z" glyph-name="R" horiz-adv-x="684" unicode="R"/><glyph d="M289 640q-45 0 -72 -22t-27 -56t25.5 -59t63 -47t82 -45t82 -53t63 -71t25.5 -99q0 -48 -18.5 -85.5t-52 -63t-80.5 -39t-104 -13.5q-43 0 -99.5 11.5t-125.5 43.5l38 93q54 -26 101.5 -35.5t85.5 -9.5q27 0 49.5 7.5t39 20.5t25.5 30t9 37q0 36 -25 62t-63 48.5 t-81.5 44.5t-81.5 50.5t-63 67t-25 92.5q0 49 17.5 85t47.5 59t70 34.5t85 11.5q23 0 44.5 -1.5t45 -5t49 -10t57.5 -16.5l-37 -91q-45 13 -81 18.5t-69 5.5z" glyph-name="S" horiz-adv-x="577" unicode="S"/><glyph d="M5 624v103h522v-103h-190v-624h-142v624h-190z" glyph-name="T" horiz-adv-x="534" unicode="T"/><glyph d="M374 -14q-67 0 -121 19t-91.5 56t-58 91.5t-20.5 125.5v449h141v-464q0 -41 11.5 -73t31.5 -54.5t47.5 -34.5t59.5 -12t59.5 12t47.5 34.5t31.5 54.5t11.5 73v464h140v-449q0 -66 -20 -120t-57.5 -92.5t-91.5 -59t-121 -20.5z" glyph-name="U" horiz-adv-x="727" unicode="U"/><glyph d="M263 0l-255 727h152l171 -552l7 -38l7 37l171 553h147l-253 -727h-147z" glyph-name="V" horiz-adv-x="667" unicode="V"/><glyph d="M611 717l128 -523l10 -56l8 54l135 535h136l-205 -727h-141l-142 535l-9 41l-8 -40l-142 -536h-144l-206 727h139l135 -534l8 -55l11 55l130 524h157z" glyph-name="W" horiz-adv-x="1059" unicode="W"/><glyph d="M40 727h158l123 -239l10 -31l8 31l123 239h157l-217 -359l228 -368h-155zM182 0h-153l198 325q9 -13 21 -34t19.5 -45.5t8 -51t-12.5 -49.5z" glyph-name="X" horiz-adv-x="661" unicode="X"/><glyph d="M78 727h506v-59l-356 -553l-16 -15l23 3h358v-103h-546v59l355 553l16 17l-24 -3h-316v101z" glyph-name="Z" horiz-adv-x="612" unicode="Z"/><glyph d="M83 727h436v-103h-293v-624h-143v727zM264 331q5 16 13 34t20 33t28.5 24.5t38.5 9.5h121v-101h-221z" glyph-name="F" horiz-adv-x="584" unicode="F"/><glyph d="M414 339v-339h-138v322l-251 405h156zM502 727h154l-212 -350q-10 13 -21.5 33.5t-19 45t-8 51t12.5 50.5z" glyph-name="Y" horiz-adv-x="699" unicode="Y"/><glyph d="M57 517h376v-59l-227 -346l-15 -17l22 3h222v-98h-405v59l229 348l15 17l-21 -3h-196v96z" glyph-name="z" horiz-adv-x="474" unicode="z"/><glyph d="M281 95q30 1 47.5 -20t34.5 -49q-29 -15 -58.5 -25t-55.5 -10q-48 0 -85.5 22t-63.5 57.5t-40 80t-14 89.5q0 60 19 112.5t55.5 91.5t89 62t119.5 23q21 0 41.5 -1t44.5 -4.5t53 -9.5t67 -15v-740h-136v659q-20 5 -37 6.5t-28 1.5q-34 0 -60 -13.5t-43.5 -38t-26.5 -59 t-9 -75.5q0 -24 4 -50t13.5 -47.5t26 -35t42.5 -12.5z" glyph-name="q" horiz-adv-x="605" unicode="q"/><glyph d="M190 240q0 -24 4 -50t13.5 -47.5t26 -35t42.5 -12.5q30 1 47 -19.5t34 -49.5q-28 -15 -57.5 -25t-55.5 -10q-48 0 -85.5 22t-64 57.5t-40 80t-13.5 89.5q0 60 19 112.5t55 91.5t88.5 62t119.5 23q21 0 42 -1t45 -4.5t53 -9.5t66 -15v-499q0 -69 -21 -116.5t-57 -77 t-84 -43t-103 -13.5q-39 0 -89 8t-109 34l35 93q51 -20 87 -27.5t68 -7.5q28 0 52.5 9t43.5 26t30 43t11 61v429q-20 5 -36.5 6.5t-27.5 1.5q-34 0 -60 -13.5t-43.5 -38t-26.5 -59t-9 -75.5z" glyph-name="g" horiz-adv-x="591" unicode="g"/><glyph d="M311 428q26 0 50 7.5t42 21.5t29 33.5t11 43.5q0 18 -7.5 36.5t-23 33.5t-40.5 25t-61 10q-27 0 -45 -1.5t-45 -5.5v-204h90zM360 90q54 0 88.5 30t34.5 86q0 30 -13 53.5t-36 40t-54.5 25.5t-68.5 9h-90v-334h-140v716q40 7 71 11.5t57 7.5t50.5 4t51.5 1 q67 0 119 -14.5t86.5 -41.5t52.5 -65t18 -84q0 -37 -23 -73.5t-60 -59.5l-29 -14l28 -7q27 -10 50.5 -28.5t40.5 -42.5t26.5 -51t9.5 -54q0 -39 -17.5 -77.5t-50.5 -69t-80 -50t-106 -19.5q-14 0 -25.5 0.5t-24.5 2.5t-28.5 5.5t-37.5 8.5q6 13 15 28t21 27.5t28 20.5t36 8z" glyph-name="B" horiz-adv-x="677" unicode="B"/><glyph d="M625 349q0 -72 -18 -138.5t-55 -117.5t-92.5 -81.5t-130.5 -30.5q-66 0 -120.5 25.5t-93.5 73t-60.5 115.5t-21.5 154q0 83 20.5 151t59 117t93.5 75.5t123 26.5q78 0 134 -33t92 -85.5t53 -118.5t17 -133zM473 349q0 61 -9 110.5t-27 84.5t-45 54t-63 19q-37 0 -64 -19 t-45 -54t-26.5 -84.5t-8.5 -110.5t9 -110t27 -83.5t45 -53.5t63 -19t63 19t45 53.5t27 83.5t9 110z" glyph-name="zero" horiz-adv-x="710" unicode="0"/><glyph d="M129 0v556l-106 -55l-43 80l223 120h54v-701h-128z" glyph-name="one" horiz-adv-x="319" unicode="1"/><glyph d="M494 522q0 -49 -27.5 -102t-67 -105t-83.5 -101t-78 -90l-16 -18l23 3h260v-109h-461v59q14 33 42 70.5t61.5 77t68.5 80.5t64 80.5t47.5 76t18.5 68.5q0 48 -32.5 73.5t-81.5 25.5q-23 0 -55 -7t-70 -24l-36 92q50 23 93 32t78 9q58 0 104.5 -13t79.5 -38t50.5 -60 t17.5 -80z" glyph-name="two" horiz-adv-x="567" unicode="2"/><glyph d="M450 546q0 -90 -103 -154l-25 -10l23 -5q56 -22 92.5 -69.5t36.5 -113.5q0 -47 -21 -85t-57.5 -64.5t-85 -41t-102.5 -14.5q-55 0 -105 12.5t-98 33.5l33 91q46 -20 82 -27.5t66 -7.5q26 0 51.5 7t45.5 20t32 32.5t12 45.5q0 34 -14.5 56t-41 35t-62 18.5t-77.5 5.5 l-9 85q42 18 75.5 33.5t56.5 32t35.5 35t12.5 42.5q0 35 -28.5 53t-68.5 18q-29 0 -61 -6.5t-78 -25.5l-34 93q58 24 105 32.5t89 8.5q47 0 87.5 -11t70.5 -32.5t47.5 -52.5t17.5 -70z" glyph-name="three" horiz-adv-x="528" unicode="3"/><glyph d="M214 242q22 0 38.5 -9.5t28.5 -24t20 -32.5t13 -35h-291v97l292 463h168v-459h81v-101h-81v-141h-133v518l2 33l-15 -28l-164 -262l-16 -20l21 1h36z" glyph-name="four" horiz-adv-x="595" unicode="4"/><glyph d="M180 442l-3 -14l18 4q10 1 18 1h14q61 0 110 -17t83 -47t52 -70t18 -86q0 -51 -21.5 -92.5t-59.5 -71t-90 -45.5t-112 -16q-38 0 -83.5 9.5t-103.5 38.5l33 91q52 -20 88.5 -28.5t64.5 -8.5q32 0 57.5 10.5t43 28t27 40t9.5 46.5q0 57 -42 87t-108 30q-26 0 -59 -3 t-80 -11l25 383h381v-109h-269z" glyph-name="five" horiz-adv-x="537" unicode="5"/><glyph d="M414 608q-53 0 -93 -22t-67 -60t-40.5 -89t-13.5 -108q0 -41 6.5 -84.5t22 -79t42 -58t66.5 -22.5q22 0 41.5 11t34 29.5t23 44t8.5 54.5q0 60 -23.5 88t-53.5 28q-13 0 -31 -3q-17 -3 -31.5 2.5t-25.5 15.5t-20 23t-15 25q44 23 78.5 31t59.5 8q42 0 80.5 -14t67 -41.5 t45.5 -68.5t17 -94q0 -44 -17.5 -86.5t-50 -77t-79 -55.5t-105.5 -21q-76 0 -130 27.5t-89 74.5t-51.5 109.5t-16.5 131.5q0 76 26 145.5t73 122.5t114 84t148 31q25 0 59 -6t71 -18l-32 -93q-31 9 -54.5 12t-43.5 3z" glyph-name="six" horiz-adv-x="625" unicode="6"/><glyph d="M105 0q12 85 29 160.5t41.5 145t58 135.5t77.5 133l15 15l-25 -2h-263v114h438v-97q-41 -53 -77 -110t-65.5 -128t-51 -160t-32.5 -206h-145z" glyph-name="seven" horiz-adv-x="503" unicode="7"/><glyph d="M574 531q0 -35 -20 -73t-55 -80l-20 -15l17 -8q43 -29 72 -70.5t29 -106.5q0 -46 -20 -81.5t-55 -60t-82 -37t-102 -12.5q-56 0 -103.5 12.5t-81.5 37t-53 60t-19 81.5q0 35 18.5 74t66.5 89q13 -12 25.5 -26t21.5 -29t12.5 -31.5t-0.5 -32.5q-5 -14 -7 -23.5t-2 -20.5 q0 -42 34 -66t88 -24q57 0 88 26.5t31 63.5q0 38 -26 63t-65 44.5t-85 38.5t-85 45.5t-65 64.5t-26 97q0 43 18.5 77t51 57.5t75.5 36t91 12.5q50 0 92.5 -12.5t74 -36t49 -57.5t17.5 -77zM245 531q0 -22 11.5 -39t31.5 -31t45.5 -26t54.5 -25q25 29 37 57t13 53 q0 25 -8 42.5t-21.5 28.5t-31 16t-36.5 5q-41 0 -68.5 -20t-27.5 -61z" glyph-name="eight" horiz-adv-x="662" unicode="8"/><glyph d="M231 92q53 0 93 22t67 60t40.5 89t13.5 108q0 41 -6.5 84t-22 78.5t-42 58t-66.5 22.5q-22 0 -41.5 -11t-34 -29.5t-23 -44t-8.5 -53.5q0 -60 23.5 -88t53.5 -28q5 0 13.5 0.5t17.5 2.5q17 3 31 -2.5t25.5 -15.5t20.5 -23t15 -25q-44 -23 -78.5 -31t-59.5 -8 q-43 0 -81 14t-66.5 41.5t-45.5 68.5t-17 94q0 43 17 86t49.5 77.5t79.5 55.5t106 21q76 0 130 -27.5t89 -74.5t51.5 -109.5t16.5 -131.5q0 -77 -26 -146.5t-73 -122t-114 -83.5t-148 -31q-25 0 -59.5 5.5t-70.5 18.5l32 92q31 -8 54.5 -11t43.5 -3z" glyph-name="nine" horiz-adv-x="624" unicode="9"/><glyph d="M187 727l-21 -497h-100l-19 497h140zM32 68q0 17 6.5 32.5t17.5 27t26 18t33 6.5q35 0 58.5 -24.5t23.5 -59.5t-23.5 -58.5t-58.5 -23.5t-59 23.5t-24 58.5z" glyph-name="exclam" horiz-adv-x="351" unicode="!"/><glyph d="M33 727h122v-78q0 -35 -7 -65t-21.5 -51t-37.5 -30t-56 -2v226zM237 727h122v-78q0 -35 -7 -65t-21.5 -51t-37.5 -30t-56 -2v226z" glyph-name="quotedbl" horiz-adv-x="416" unicode="&quot;"/><glyph d="M480 141l7 15l-15 -2h-154q5 14 13 29.5t21 28t32 21t46 8.5h66l40 207l8 16l-18 -2h-181l-88 -462h-112l29 145l7 11l-14 -2h-102v86h125l41 213l7 11l-16 -2h-98v88h126l28 152h112l-29 -152h195l29 152h112l-30 -152h114v-87h-130l-43 -222h113v-87h-127l-30 -154 h-112z" glyph-name="numbersign" horiz-adv-x="894" unicode="#"/><glyph d="M264 612q-45 0 -72 -21.5t-27 -53.5q0 -33 25.5 -56.5t63 -44.5t82 -42.5t82 -50t63 -67.5t25.5 -95q0 -81 -51.5 -128.5t-138.5 -60.5v-99h-106v96q-38 4 -84 16t-100 35l38 94q54 -24 101.5 -33.5t85.5 -9.5q54 0 88.5 27t34.5 65q0 35 -25 59.5t-63 45.5t-81.5 41.5 t-81.5 47.5t-63 63t-25 89q0 41 13.5 72.5t37 53.5t55.5 35.5t69 18.5v101h106v-101q29 -3 61 -9.5t74 -19.5l-37 -91q-45 12 -81 17.5t-69 5.5z" glyph-name="dollar" horiz-adv-x="514" unicode="$"/><glyph d="M576 702h111l-438 -702h-111zM821 191q0 -97 -47 -150.5t-127 -53.5t-126 53t-46 151q0 97 46 150t126 53t127 -53t47 -150zM710 191q0 61 -17 92.5t-46 31.5q-27 0 -44.5 -31.5t-17.5 -92.5q0 -63 17.5 -94t44.5 -31q29 0 46 31t17 94zM352 514q0 -97 -47 -150.5 t-127 -53.5t-126 53t-46 151q0 97 46 150t126 53t127 -53t47 -150zM241 514q0 61 -17 92.5t-46 31.5q-27 0 -44.5 -31.5t-17.5 -92.5q0 -63 17.5 -94t44.5 -31q29 0 46 31t17 94z" glyph-name="percent" horiz-adv-x="814" unicode="%"/><glyph d="M297 324l-9 17l-9 -18q-17 -21 -26.5 -45t-9.5 -56q0 -55 26.5 -92t80.5 -37q11 0 17.5 1t15.5 2q38 3 62.5 -15.5t45.5 -41.5q-35 -26 -73 -38t-83 -12q-51 0 -92.5 15.5t-71.5 44t-46.5 69.5t-16.5 91q0 68 34 118.5t83 87.5q-18 24 -28.5 43t-16.5 35t-8 29.5t-2 27.5 q0 46 17 81t47.5 58.5t72 35.5t89.5 12q33 0 75 -8.5t79 -25.5l-30 -92q-32 11 -65.5 16.5t-60.5 5.5q-43 0 -69.5 -20.5t-26.5 -53.5q0 -38 24.5 -72t65.5 -83l134 -158l10 -18l7 21q14 32 23 63t14 67h115q-14 -66 -33 -123.5t-50 -108.5l127 -147h-159z" glyph-name="ampersand" horiz-adv-x="761" unicode="&amp;"/><glyph d="M27 727h122v-78q0 -35 -7 -65t-21.5 -51t-37.5 -30t-56 -2v226z" glyph-name="quotesingle" horiz-adv-x="191" unicode="'"/><glyph d="M281 296q0 -83 3.5 -143t16 -105.5t37 -82.5t67.5 -75l-66 -66q-58 39 -93.5 82.5t-55 99t-26 126t-6.5 164.5q0 93 6.5 164t26 126t55 98.5t93.5 82.5l66 -65q-43 -39 -68 -76t-37.5 -83t-15.5 -105t-3 -142z" glyph-name="parenleft" horiz-adv-x="403" unicode="("/><glyph d="M122 296q0 83 -3 142t-15.5 105t-37.5 83t-68 76l66 65q58 -39 93.5 -82.5t55 -98.5t26 -126t6.5 -164q0 -94 -6.5 -164.5t-26 -126t-55 -99t-93.5 -82.5l-66 66q43 38 67.5 75t37 82.5t16 105.5t3.5 143z" glyph-name="parenright" horiz-adv-x="401" unicode=")"/><glyph d="M249 590l54 156l94 -55l-108 -123l161 31v-108l-163 32l109 -123l-94 -54l-52 156l-53 -156l-94 54l109 124l-161 -32v108l159 -31l-108 122l94 55z" glyph-name="asterisk" horiz-adv-x="530" unicode="*"/><glyph d="M47 353h180v193h106v-193h182v-96h-182v-195h-106v195h-180v96z" glyph-name="plus" horiz-adv-x="568" unicode="+"/><glyph d="M56 98h122v-78q0 -35 -7 -65t-21.5 -51t-37.5 -30t-56 -2v226z" glyph-name="comma" horiz-adv-x="254" unicode=","/><glyph d="M45 255v98h302v-98h-302z" glyph-name="hyphen" horiz-adv-x="375" unicode="-"/><glyph d="M-13 -62l243 789h121l-243 -789h-121z" glyph-name="slash" horiz-adv-x="332" unicode="/"/><glyph d="M69 67q0 17 6.5 32.5t17.5 27t26 18t33 6.5q35 0 58.5 -24.5t23.5 -59.5t-23.5 -58.5t-58.5 -23.5t-59 23.5t-24 58.5zM69 426q0 17 6.5 32.5t17.5 27t26 18t33 6.5q35 0 58.5 -24.5t23.5 -59.5t-23.5 -58.5t-58.5 -23.5t-59 23.5t-24 58.5z" glyph-name="colon" horiz-adv-x="299" unicode=":"/><glyph d="M554 131v-131l-517 231v90l517 231v-130l-347 -139l-26 -7l26 -6z" glyph-name="less" horiz-adv-x="613" unicode="&lt;"/><glyph d="M67 259h472v-98h-472v98zM67 480h472v-98h-472v98z" glyph-name="equal" horiz-adv-x="606" unicode="="/><glyph d="M265 737q50 0 92 -11t72 -31.5t47 -51t17 -69.5q0 -35 -14.5 -65t-35.5 -57.5t-46.5 -53t-46.5 -52t-35.5 -55t-14.5 -61.5h-118q0 45 12.5 80.5t31 63.5t40.5 51.5t40.5 45t31 42.5t12.5 46q0 34 -26 54t-69 20q-14 0 -28 -1t-29.5 -4.5t-34 -9.5t-42.5 -16l-36 94 q56 25 97 33t83 8zM158 68q0 17 6.5 32.5t17.5 27t26 18t33 6.5q35 0 58.5 -24.5t23.5 -59.5t-23.5 -58.5t-58.5 -23.5t-59 23.5t-24 58.5z" glyph-name="question" horiz-adv-x="583" unicode="?"/><glyph d="M629 170l-2 -21l14 12q23 15 39.5 35.5t27 43t15.5 45t5 43.5q0 54 -19.5 97.5t-55 74.5t-84.5 47.5t-108 16.5q-64 0 -117 -21t-91 -61t-59 -96.5t-21 -128.5q0 -71 20.5 -127.5t57.5 -96t87 -60.5t109 -21q22 0 41.5 1t41 4t45.5 9t55 15l29 -77q-36 -12 -64 -19 t-53 -11t-47.5 -5t-47.5 -1q-77 0 -144.5 23t-118 71t-80 121t-29.5 174q0 93 32 166t85.5 123t123.5 76t146 26q72 0 138 -21t116.5 -61.5t80.5 -100.5t30 -137q0 -50 -20 -95t-54.5 -81.5t-82 -61.5t-102.5 -35q-11 6 -16.5 17t-10.5 24l-2 19l-10 -20 q-29 -29 -56.5 -38.5t-54.5 -9.5q-61 0 -97.5 30t-36.5 81q0 30 11.5 53t37 39.5t67 27.5t100.5 17q-1 -7 -4 -19t-9.5 -24t-17 -21.5t-25.5 -11.5q-41 -6 -53 -22t-12 -35q0 -20 15.5 -32t43.5 -12q26 0 50.5 13t47.5 44v129q0 46 -24 65.5t-68 19.5q-21 0 -41.5 -3 t-53.5 -14l-26 67q41 16 72 21.5t63 5.5q82 0 126.5 -41.5t44.5 -125.5v-129z" glyph-name="at" horiz-adv-x="919" unicode="@"/><glyph d="M122 771h303v-104h-171v-762h171v-104h-303v970z" glyph-name="bracketleft" horiz-adv-x="447" unicode="["/><glyph d="M183 210h-129l211 517h101l211 -517h-127l-127 333l-7 31l-7 -31z" glyph-name="asciicircum" horiz-adv-x="628" unicode="^"/><glyph d="M27 -95v95h443v-95h-443z" glyph-name="underscore" horiz-adv-x="497" unicode="_"/><glyph d="M20 727h107l66 -125q-30 -8 -56 -1.5t-45 30.5z" glyph-name="grave" horiz-adv-x="196" unicode="`"/><glyph d="M162 425q4 63 15.5 113t32 90.5t52 74t77.5 64.5l66 -65q-32 -28 -53.5 -55t-35.5 -58t-21.5 -67.5t-10.5 -82.5q-3 -42 -23 -73t-52 -52l-24 -11l23 -10q32 -21 52.5 -52t23.5 -73q3 -50 10.5 -89t21.5 -71.5t35.5 -61t53.5 -56.5l-66 -66q-47 32 -79.5 67.5t-53 78.5 t-31.5 96t-15 121q-3 35 -31 55.5t-66 27.5v72q38 7 67 27.5t32 55.5z" glyph-name="braceleft" horiz-adv-x="403" unicode="{"/><glyph d="M115 -293v1104h126v-1104h-126z" glyph-name="bar" horiz-adv-x="317" unicode="|"/><glyph d="M319 425q3 -35 32 -55.5t67 -27.5v-72q-38 -7 -66 -27.5t-31 -55.5q-4 -68 -15 -121t-31.5 -96t-53 -78.5t-79.5 -67.5l-66 66q32 28 53.5 56.5t35.5 61t21.5 71.5t10.5 89q3 42 23 72.5t52 51.5l25 11l-26 11q-32 21 -51.5 52t-22.5 73q-3 46 -10.5 82.5t-21.5 67.5 t-36 58t-53 55l66 65q46 -31 77.5 -64.5t52 -74t31.5 -90.5t16 -113z" glyph-name="braceright" horiz-adv-x="428" unicode="}"/><glyph d="M63 236q1 38 15 68t35.5 50t49 31t56.5 11q35 0 61.5 -11.5t48.5 -25t40 -24.5t36 -11q20 0 32.5 17t16.5 44l115 -8q-2 -43 -17 -73t-36.5 -49.5t-47 -28.5t-47.5 -9q-40 0 -66.5 11t-46.5 24.5t-36.5 25t-35.5 11.5q-17 0 -34 -13t-21 -48z" glyph-name="asciitilde" horiz-adv-x="614" unicode="~"/><glyph d="M367 -12q-72 0 -126.5 20.5t-93.5 55.5t-64 81.5t-37 98.5h-79v75h68q-1 8 -1 15.5v15.5v23t2 23h-69v75h82q14 50 40 94t65.5 76.5t92 51.5t120.5 19q41 0 82 -8t87 -25l-35 -88q-42 12 -71.5 17t-62.5 5q-48 0 -83 -22.5t-58.5 -59t-34.5 -84t-11 -97.5v-15.5t1 -15.5 h276v-75h-246l-21 1l8 -16q20 -61 61.5 -101.5t107.5 -40.5q33 0 65.5 8t67.5 25l36 -88q-43 -23 -85.5 -33.5t-83.5 -10.5zM457 471v-75h-240q10 29 30 52t57 23h153z" glyph-name="Euro" horiz-adv-x="590" unicode="€"/><glyph d="M56 98h122v-78q0 -35 -7 -65t-21.5 -51t-37.5 -30t-56 -2v226z" glyph-name="quotesinglbase" horiz-adv-x="197" unicode="‚"/><glyph d="M138 367h-77l1 79l85 20l3 28q5 49 24.5 89.5t51 69t73.5 44t92 15.5q25 0 58.5 -6.5t71.5 -23.5l-40 -89q-29 8 -48.5 12t-36.5 4q-49 0 -79 -31.5t-35 -83.5l-41 -419q-5 -50 -24.5 -86t-49.5 -61.5t-69 -42t-82 -26.5l-23 89q48 16 79 45t38 90zM457 466v-99h-153 q6 16 16 34t23.5 32t30.5 23.5t39 9.5h44z" glyph-name="florin" horiz-adv-x="524" unicode="ƒ"/><glyph d="M33 98h122v-78q0 -35 -7 -65t-21.5 -51t-37.5 -30t-56 -2v226zM237 98h122v-78q0 -35 -7 -65t-21.5 -51t-37.5 -30t-56 -2v226z" glyph-name="quotedblbase" horiz-adv-x="394" unicode="„"/><glyph d="M68 67q0 17 6.5 32.5t17.5 27t26 18t33 6.5q35 0 58.5 -24.5t23.5 -59.5t-23.5 -58.5t-58.5 -23.5t-59 23.5t-24 58.5zM339 67q0 17 6.5 32.5t17.5 27t26 18t33 6.5q35 0 58.5 -24.5t23.5 -59.5t-23.5 -58.5t-58.5 -23.5t-59 23.5t-24 58.5zM609 67q0 17 6.5 32.5 t17.5 27t26 18t33 6.5q35 0 58.5 -24.5t23.5 -59.5t-23.5 -58.5t-58.5 -23.5t-59 23.5t-24 58.5z" glyph-name="ellipsis" horiz-adv-x="853" unicode="…"/><glyph d="M334 -30h-120v727h120v-727zM482 391q-24 0 -42.5 8.5t-32 23t-23 32.5t-15.5 37h180v-101h-67zM-1 391v101h180q-6 -19 -15.5 -37t-23 -32.5t-32 -23t-42.5 -8.5h-67z" glyph-name="dagger" horiz-adv-x="567" unicode="†"/><glyph d="M358 -30h-120v727h120v-727zM506 411q-24 0 -42.5 8.5t-32 23t-23 32.5t-15.5 37h180v-101h-67zM23 411v101h180q-6 -19 -15.5 -37t-23 -32.5t-32 -23t-42.5 -8.5h-67zM506 155q-24 0 -42.5 8.5t-32 23t-23 32.5t-15.5 37h180v-101h-67zM23 155v101h180q-6 -19 -15.5 -37 t-23 -32.5t-32 -23t-42.5 -8.5h-67z" glyph-name="daggerdbl" horiz-adv-x="611" unicode="‡"/><glyph d="M219 743l107 -140l-81 -18l-78 73l-76 -73l-80 18l105 140h103z" glyph-name="circumflex" horiz-adv-x="343" unicode="ˆ"/><glyph d="M597 702h120l-561 -702h-120zM725 170q0 -88 -42 -135.5t-114 -47.5t-113.5 47.5t-41.5 135.5t41.5 135.5t113.5 47.5t114 -47.5t42 -135.5zM625 170q0 55 -15 83.5t-41 28.5q-25 0 -40.5 -28.5t-15.5 -83.5q0 -56 15.5 -84t40.5 -28q26 0 41 28t15 84zM1089 170 q0 -88 -42 -135.5t-114 -47.5t-113.5 47.5t-41.5 135.5t41.5 135.5t113.5 47.5t114 -47.5t42 -135.5zM989 170q0 55 -15 83.5t-41 28.5q-25 0 -40.5 -28.5t-15.5 -83.5q0 -56 15.5 -84t40.5 -28q26 0 41 28t15 84zM332 534q0 -88 -42 -135.5t-114 -47.5t-113.5 47.5 t-41.5 135.5t41.5 135.5t113.5 47.5t114 -47.5t42 -135.5zM232 534q0 55 -15 83.5t-41 28.5q-25 0 -40.5 -28.5t-15.5 -83.5q0 -56 15.5 -84t40.5 -28q26 0 41 28t15 84z" glyph-name="perthousand" horiz-adv-x="1114" unicode="‰"/><glyph d="M281 640q-45 0 -72 -22t-27 -56t25.5 -59t63 -47t82 -45t82 -53t63 -71t25.5 -99q0 -48 -18.5 -85.5t-52 -63t-80.5 -39t-104 -13.5q-43 0 -99.5 11.5t-125.5 43.5l38 93q54 -26 101.5 -35.5t85.5 -9.5q27 0 49.5 7.5t39 20.5t25.5 30t9 37q0 36 -25 62t-63 48.5 t-81.5 44.5t-81.5 50.5t-63 67t-25 92.5q0 49 17.5 85t47.5 59t70 34.5t85 11.5q23 0 44.5 -1.5t45 -5t49 -10t57.5 -16.5l-37 -91q-45 13 -81 18.5t-69 5.5zM229 761l-105 116l80 18l76 -56l78 56l81 -18l-107 -116h-103z" glyph-name="Scaron" horiz-adv-x="554" unicode="Š"/><glyph d="M174 258l233 214l55 -54l-126 -160l126 -160l-55 -53z" glyph-name="guilsinglleft" horiz-adv-x="613" unicode="‹"/><glyph d="M382 742q20 0 39 -2.5l38 -5t39 -5t43 -2.5h373v-103h-293v-521h309v-103h-389q-25 0 -46 -2t-40 -5t-37 -5t-36 -2q-85 0 -152 28t-113.5 78t-71.5 119.5t-25 152.5q0 82 25.5 151t72.5 119.5t114 79t150 28.5zM382 89q54 0 96 16v517q-45 17 -96 17q-52 0 -91 -22 t-65.5 -60t-40 -88t-13.5 -105q0 -52 13.5 -101.5t40 -88t65.5 -62t91 -23.5zM659 331q5 16 13 34t20 33t28.5 24.5t38.5 9.5h121v-101h-221z" glyph-name="OE" horiz-adv-x="959" unicode="Œ"/><glyph d="M104 727h506v-59l-356 -553l-16 -15l23 3h358v-103h-546v59l355 553l16 17l-24 -3h-316v101zM312 761l-105 116l80 18l76 -56l78 56l81 -18l-107 -116h-103z" glyph-name="Zcaron" horiz-adv-x="598" unicode="Ž"/><glyph d="M149 501h-122v78q0 34 7 64.5t21.5 51.5t37.5 30t56 2v-226z" glyph-name="quoteleft" horiz-adv-x="205" unicode="‘"/><glyph d="M359 501h-122v78q0 34 7 64.5t21.5 51.5t37.5 30t56 2v-226zM155 501h-122v78q0 34 7 64.5t21.5 51.5t37.5 30t56 2v-226z" glyph-name="quotedblleft" horiz-adv-x="396" unicode="“"/><glyph d="M164 315q0 41 26 68t67 27t68 -27t27 -68t-27 -67t-68 -26t-67 26t-26 67z" glyph-name="bullet" horiz-adv-x="500" unicode="•"/><glyph d="M45 226v98h424v-98h-424z" glyph-name="endash" horiz-adv-x="540" unicode="–"/><glyph d="M45 226v98h739v-98h-739z" glyph-name="emdash" horiz-adv-x="849" unicode="—"/><glyph d="M105 624q1 28 9.5 50t22.5 37t31.5 23t35.5 8q22 0 39 -8.5t31 -18t25.5 -18t22.5 -8.5q13 0 21 12.5t10 32.5l73 -6q-2 -32 -11.5 -54t-23 -36.5t-29.5 -21t-30 -6.5q-25 0 -42 8.5t-29.5 18t-23 18t-22.5 8.5q-11 0 -22 -9.5t-13 -35.5z" glyph-name="tilde" horiz-adv-x="492" unicode="˜"/><glyph d="M28 670v58h234v-58h-78v-241h-78v241h-78zM327 728h94l65 -199l3 -13l3 13l65 199h94l31 -299h-74l-15 196l-2 17l-5 -17l-64 -191h-66l-66 191l-4 17l-2 -17l-15 -196h-73z" glyph-name="trademark" horiz-adv-x="728" unicode="™"/><glyph d="M50 125q47 -18 83 -25t68 -7q37 0 54 15.5t17 34.5q0 22 -18 37t-45 28t-58 26t-58 31.5t-45 45t-18 66.5q0 24 9.5 50.5t31.5 48t57.5 36t86.5 14.5q34 0 69.5 -5t83.5 -21l-32 -90q-39 10 -63 13.5t-49 3.5q-29 0 -45.5 -11.5t-16.5 -32.5t18 -36t45 -28t58 -27t58 -33 t45 -45.5t18 -65.5q0 -36 -15 -65.5t-40 -50t-57.5 -31.5t-67.5 -11q-39 0 -89 7t-117 35zM161 589l-105 140l80 18l76 -73l78 73l81 -18l-107 -140h-103z" glyph-name="scaron" horiz-adv-x="416" unicode="š"/><glyph d="M244 45l-55 53l126 160l-126 160l55 54l233 -214z" glyph-name="guilsinglright" horiz-adv-x="613" unicode="›"/><glyph d="M751 317q3 23 -2 44t-16.5 37t-29 25.5t-40.5 9.5q-21 0 -41.5 -9t-37.5 -28.5t-27.5 -50t-10.5 -73.5q0 -87 39 -134.5t102 -47.5q35 0 68.5 8.5t77.5 28.5l35 -93q-54 -26 -101.5 -36.5t-94.5 -10.5q-31 0 -59.5 7.5t-53 20.5t-44 31t-32.5 39l-9 23l-11 -22 q-30 -42 -78 -70.5t-102 -28.5q-56 0 -105 19t-85 54.5t-57 85.5t-21 113q0 57 21 106.5t57 86t85 57.5t105 21q51 0 99 -23.5t79 -69.5l10 -23l12 24q32 45 82.5 68.5t104.5 23.5q55 0 101 -22t74 -61t34.5 -93.5t-15.5 -118.5h-280q11 35 31.5 58.5t46.5 23.5h89zM163 259 q0 -35 8 -66t23 -54t37.5 -36.5t51.5 -13.5t51.5 13.5t37.5 36.5t22.5 54t7.5 66t-7.5 65.5t-22.5 53.5t-37.5 36.5t-51.5 13.5t-51.5 -13.5t-37.5 -36.5t-23 -53.5t-8 -65.5z" glyph-name="oe" horiz-adv-x="912" unicode="œ"/><glyph d="M57 517h376v-59l-227 -346l-15 -17l22 3h222v-98h-405v59l229 348l15 17l-21 -3h-196v96zM187 589l-105 140l80 18l76 -73l78 73l81 -18l-107 -140h-103z" glyph-name="zcaron" horiz-adv-x="448" unicode="ž"/><glyph d="M392 339v-339h-138v322l-251 405h156zM480 727h154l-212 -350q-10 13 -21.5 33.5t-19 45t-8 51t12.5 50.5zM163 840q0 26 18.5 44.5t44.5 18.5t45 -18.5t19 -44.5t-19 -44.5t-45 -18.5t-44.5 18.5t-18.5 44.5zM358 840q0 26 18.5 44.5t44.5 18.5t45 -18.5t19 -44.5 t-19 -44.5t-45 -18.5t-44.5 18.5t-18.5 44.5z" glyph-name="Ydieresis" horiz-adv-x="660" unicode="Ÿ"/><glyph d="M47 -210l19 497h100l21 -497h-140zM32 449q0 35 24 58.5t59 23.5t58.5 -23.5t23.5 -58.5t-23.5 -59.5t-58.5 -24.5q-18 0 -33 6.5t-26 18t-17.5 27t-6.5 32.5z" glyph-name="exclamdown" horiz-adv-x="351" unicode="¡"/><glyph d="M327 624q22 -2 45 -7t45 -13l-34 -93q-24 6 -47 9t-40 3q-54 0 -87 -45t-33 -123q0 -79 33 -124t87 -45q21 0 45 5.5t56 18.5l34 -92q-29 -14 -55 -21.5t-49 -11.5v-99h-98v103q-42 9 -78.5 29t-63.5 52.5t-43 78.5t-16 106q0 57 16 101.5t43 77.5t63.5 54t78.5 30v98h98 v-92z" glyph-name="cent" horiz-adv-x="427" unicode="¢"/><glyph d="M279 197q-5 -22 -12 -36t-18 -31l-18 -20l22 2h230v-112h-449v76q54 27 88.5 69t34.5 97q0 15 -0.5 29.5t-2.5 33.5h-99v97h83q-4 23 -6.5 50.5t-2.5 59.5q0 51 17.5 88.5t49 62t74.5 37t95 12.5q35 0 74 -8t86 -29l-35 -95q-38 16 -71 22t-54 6q-49 0 -76 -24.5 t-27 -72.5q0 -45 5.5 -86t10.5 -79.5t6.5 -75t-5.5 -73.5zM402 305q-23 0 -38.5 9t-26.5 23.5t-18 31.5t-12 33h161v-97h-66z" glyph-name="sterling" horiz-adv-x="513" unicode="£"/><glyph d="M358 340q0 26 -8 49.5t-22 41.5t-33 28.5t-40 10.5q-20 0 -39 -9.5t-33 -26.5t-22.5 -41t-8.5 -53t8.5 -53t22.5 -41t33 -26.5t39 -9.5q21 0 40 10.5t33 28.5t22 41.5t8 49.5zM444 341q0 -36 -9 -67t-21 -48l79 -73l-50 -53l-77 71q-17 -14 -46 -24.5t-64 -10.5 q-33 0 -60 10t-47 24l-74 -71l-54 56l78 71q-13 17 -23.5 46.5t-10.5 68.5q0 38 10.5 67t23.5 46l-78 71l54 56l74 -71q20 14 47 24t60 10q35 0 64 -10.5t46 -24.5l77 71l50 -53l-79 -73q12 -17 21 -47t9 -66z" glyph-name="currency" horiz-adv-x="513" unicode="¤"/><glyph d="M393 339v-20h143v-67h-143v-57h143v-67h-143v-128h-138v128h-144v67h144v57h-144v67h144v3l-251 405h156zM481 727h154l-212 -350q-10 13 -21.5 33.5t-19 45t-8 51t12.5 50.5z" glyph-name="yen" horiz-adv-x="660" unicode="¥"/><glyph d="M68 387v424h126v-424h-126zM68 -293v434h126v-434h-126z" glyph-name="brokenbar" horiz-adv-x="254" unicode="¦"/><glyph d="M472 325q0 -32 -16.5 -57.5t-44.5 -43.5l-23 -10l20 -11q24 -20 39.5 -46.5t15.5 -62.5q0 -33 -17 -59.5t-45.5 -45.5t-67 -29.5t-81.5 -10.5q-17 0 -42.5 2t-54.5 6.5t-60 12.5t-58 21l35 84q45 -17 88 -26t80 -9q43 0 73 12t30 41q0 27 -22 44.5t-55.5 32t-72.5 28.5 t-72.5 34t-55.5 48.5t-22 71.5q0 29 19.5 55.5t48.5 46.5l21 9l-20 10q-27 20 -43.5 47t-16.5 65q0 28 15 53t41 43t62.5 28.5t79.5 10.5q34 0 74.5 -5.5t91.5 -20.5l-35 -84q-38 11 -66 15t-53 4q-43 0 -66.5 -11t-23.5 -32q0 -27 22 -45t55.5 -32.5t72.5 -28.5t72.5 -34 t55.5 -49t22 -72zM356 330q0 16 -12.5 28t-33.5 22.5t-47.5 20.5t-54.5 21q-26 -16 -37.5 -30.5t-11.5 -34.5q0 -18 13 -31.5t35 -25t49.5 -22t56.5 -22.5q43 33 43 74z" glyph-name="section" horiz-adv-x="500" unicode="§"/><glyph d="M107 670q0 26 18.5 44.5t44.5 18.5t45 -18.5t19 -44.5t-19 -44.5t-45 -18.5t-44.5 18.5t-18.5 44.5zM302 670q0 26 18.5 44.5t44.5 18.5t45 -18.5t19 -44.5t-19 -44.5t-45 -18.5t-44.5 18.5t-18.5 44.5z" glyph-name="dieresis" horiz-adv-x="528" unicode="¨"/><glyph d="M357 690q74 0 135 -25t105 -69t68 -105.5t24 -133.5q0 -68 -25 -129t-69 -107t-105 -73t-133 -27q-75 0 -136.5 25t-105.5 69.5t-68.5 106t-24.5 135.5q0 67 25 127t69.5 106t106 73t134.5 27zM357 613q-51 0 -95.5 -18t-77 -52t-51.5 -81.5t-19 -107.5q0 -59 19 -106 t51.5 -80t77 -51t95.5 -18q50 0 93.5 18t76 51t51.5 81t19 108q0 58 -19 105.5t-51.5 81t-76 51.5t-93.5 18zM377 176q-36 0 -68 12t-55 35t-36.5 56.5t-13.5 77.5q0 43 13.5 77t37 56.5t55 34.5t67.5 12q39 0 83 -14l-22 -64q-18 6 -32 8.5t-29 2.5q-38 0 -61.5 -32.5 t-23.5 -80.5q0 -49 23.5 -82t61.5 -33q14 0 31 3t40 14l21 -60q-28 -14 -52 -18.5t-40 -4.5z" glyph-name="copyright" horiz-adv-x="720" unicode="©"/><glyph d="M344 422q0 -42 3 -71.5t8 -48.5h-70q-8 8 -13 16.5t-10 19.5l-1 12l-8 -12q-19 -20 -45 -31.5t-57 -11.5q-49 0 -82.5 25.5t-33.5 73.5q0 49 43.5 78.5t151.5 41.5q-1 -6 -4 -16t-8.5 -20.5t-14.5 -18.5t-23 -11q-29 -5 -41 -18t-12 -31q0 -17 11.5 -29t31.5 -12 q23 0 45 10t40 33v126q0 42 -23.5 59t-59.5 17q-19 0 -39.5 -3.5t-42.5 -11.5l-20 59q34 15 63 19.5t52 4.5q79 0 119 -39t40 -110v-100z" glyph-name="ordfeminine" unicode="ª"/><glyph d="M48 258l233 214l55 -54l-126 -160l126 -160l-55 -53zM322 258l233 214l55 -54l-126 -160l126 -160l-55 -53z" glyph-name="guillemotleft" horiz-adv-x="613" unicode="«"/><glyph d="M546 455v-299h-107v201h-396v98h503z" glyph-name="logicalnot" horiz-adv-x="591" unicode="¬"/><glyph d="M45 255v98h302v-98h-302z" glyph-name="uni00AD" horiz-adv-x="375" unicode="­"/><glyph d="M357 690q74 0 135 -25t105 -69t68 -105.5t24 -133.5q0 -68 -25 -129t-69 -107t-105 -73t-133 -27q-75 0 -136.5 25t-105.5 69.5t-68.5 106t-24.5 135.5q0 67 25 127t69.5 106t106 73t134.5 27zM357 613q-51 0 -95.5 -18t-77 -52t-51.5 -81.5t-19 -107.5q0 -59 19 -106 t51.5 -80t77 -51t95.5 -18q50 0 93.5 18t76 51t51.5 81t19 108q0 58 -19 105.5t-51.5 81t-76 51.5t-93.5 18zM498 431q0 -27 -12 -49t-36 -35l-22 -4l19 -10q14 -11 21.5 -26.5t13 -34.5t11.5 -40t16 -43h-86q-9 20 -13.5 41t-9 40t-13.5 33.5t-27 21.5h-24q4 20 14 37.5 t32 22.5q17 5 24 17t7 29q0 41 -59 41q-9 0 -13 -0.5t-18 -2.5v-280h-82v332q29 7 58 11t55 4q64 0 104 -28t40 -77z" glyph-name="registered" horiz-adv-x="720" unicode="®"/><glyph d="M110 603v84h302v-84h-302z" glyph-name="macron" horiz-adv-x="500" unicode="¯"/><glyph d="M104 623q0 -38 21 -57.5t50 -19.5t50.5 19.5t21.5 57.5t-21.5 58t-50.5 20t-50 -20t-21 -58zM19 623q0 33 13 60.5t34.5 47.5t50 31t58.5 11t58.5 -10.5t50 -30t34.5 -47.5t13 -62q0 -33 -13 -60.5t-34.5 -47.5t-50 -31t-58.5 -11t-58.5 10.5t-50 30t-34.5 47t-13 62.5z" glyph-name="degree" horiz-adv-x="337" unicode="°"/><glyph d="M47 383h180v143h106v-143h182v-96h-182v-145h-106v145h-180v96zM47 0v98h468v-98h-468z" glyph-name="plusminus" horiz-adv-x="568" unicode="±"/><glyph d="M337 628q0 -36 -16 -66.5t-39 -58.5t-49 -55t-46 -56l-9 -10l13 2h143v-74h-265v45q26 46 57.5 83t58.5 68.5t45 59t18 55.5q0 22 -17 34t-46 12q-17 0 -34 -4t-33 -11l-28 59q27 14 57 19.5t54 5.5q59 0 97.5 -28t38.5 -80z" glyph-name="twosuperior" horiz-adv-x="402" unicode="²"/><glyph d="M307 638q0 -32 -21 -57t-56 -41q17 -4 33.5 -13.5t29 -23.5t20.5 -32.5t8 -40.5q0 -30 -12.5 -54t-34.5 -40.5t-52 -25.5t-64 -9q-31 0 -59.5 9.5t-43.5 18.5l22 61q18 -8 39 -13.5t41 -5.5q34 0 54 18t20 44q0 32 -24 49t-75 17l-7 56l32 13q27 11 43.5 25.5t16.5 37.5 q0 12 -12.5 23t-34.5 11q-32 0 -74 -14l-25 59q29 14 54.5 19.5t50.5 5.5q55 0 93 -23.5t38 -73.5z" glyph-name="threesuperior" horiz-adv-x="381" unicode="³"/><glyph d="M199 645q-15 -18 -34.5 -28t-40 -14.5t-39.5 -4t-32 3.5l86 138h139z" glyph-name="acute" horiz-adv-x="322" unicode="´"/><glyph d="M390 52q-22 -31 -51 -46.5t-74 -15.5q-17 0 -37.5 6t-36.5 18l-14 17l1 -24v-218h-122v728h128v-307q0 -60 25 -91t65 -31q47 0 76 31.5t29 79.5v318h129v-353q0 -42 12 -59t43 -15l12 -85q-17 -7 -39 -10t-33 -3q-26 0 -55 14.5t-44 46.5l-5 18z" glyph-name="mu" horiz-adv-x="553" unicode="µ"/><glyph d="M390 52q-22 -31 -51 -46.5t-74 -15.5q-17 0 -37.5 6t-36.5 18l-14 17l1 -24v-218h-122v728h128v-307q0 -60 25 -91t65 -31q47 0 76 31.5t29 79.5v318h129v-353q0 -42 12 -59t43 -15l12 -85q-17 -7 -39 -10t-33 -3q-26 0 -55 14.5t-44 46.5l-5 18z" glyph-name="mu" horiz-adv-x="553" unicode="μ"/><glyph d="M325 304l-2 1q-45 4 -85 20.5t-69.5 44.5t-47 66t-17.5 84q0 43 16.5 83t48 70.5t78 48.5t106.5 18q27 0 51 -1t47 -3.5t47.5 -6t52.5 -9.5v-750h-73v688q-23 4 -42.5 5.5t-37.5 2.5v-696h-73v334z" glyph-name="paragraph" horiz-adv-x="609" unicode="¶"/><glyph d="M69 304q0 17 6.5 32.5t17.5 27t26 18t33 6.5q35 0 58.5 -24.5t23.5 -59.5t-23.5 -58.5t-58.5 -23.5t-59 23.5t-24 58.5z" glyph-name="periodcentered" horiz-adv-x="306" unicode="·"/><glyph d="M291 3l-11 -46q30 -7 55.5 -27t25.5 -53q0 -23 -11.5 -39.5t-29.5 -28t-40.5 -17t-45.5 -5.5q-35 0 -81 20l18 55q19 -7 33.5 -9.5t29.5 -2.5q17 0 28.5 6.5t11.5 17.5q0 15 -19.5 23t-54.5 12l23 88z" glyph-name="cedilla" horiz-adv-x="500" unicode="¸"/><glyph d="M167 309v305l-56 -27l-35 64l142 76h48v-418h-99z" glyph-name="onesuperior" horiz-adv-x="319" unicode="¹"/><glyph d="M214 671q44 0 77.5 -14t56 -39t34 -59.5t11.5 -75.5q0 -38 -11 -72t-33 -60t-55.5 -41.5t-79.5 -15.5q-82 0 -130.5 49t-48.5 140q0 39 11.5 73t34.5 59.5t56 40.5t77 15zM214 364q44 0 65.5 33.5t21.5 85.5q0 53 -22 86t-65 33q-41 0 -63.5 -33.5t-22.5 -85.5 q0 -24 5 -45.5t15.5 -38t26.5 -26t39 -9.5z" glyph-name="ordmasculine" horiz-adv-x="430" unicode="º"/><glyph d="M370 45l-55 53l126 160l-126 160l55 54l233 -214zM97 45l-55 53l126 160l-126 160l55 54l233 -214z" glyph-name="guillemotright" horiz-adv-x="613" unicode="»"/><glyph d="M66 0l436 727h108l-436 -727h-108zM525 423h93v-272h48v-69h-48v-82h-84v304l-104 -153h20q12 0 21.5 -6.5t16.5 -16.5t12 -22.5t9 -23.5h-171v61zM107 309v305l-56 -27l-35 64l142 76h48v-418h-99z" glyph-name="onequarter" horiz-adv-x="698" unicode="¼"/><glyph d="M66 0l436 727h108l-436 -727h-108zM107 309v305l-56 -27l-35 64l142 76h48v-418h-99zM690 318q0 -36 -16 -66t-39 -57.5t-48.5 -54.5t-45.5 -56l-10 -12l17 2h139v-74h-265v45q26 46 57.5 83t58.5 68.5t45 59t18 55.5q0 22 -17 34t-46 12q-17 0 -34 -4t-33 -11l-28 59 q27 14 57 19.5t54 5.5q59 0 97.5 -28t38.5 -80z" glyph-name="onehalf" horiz-adv-x="763" unicode="½"/><glyph d="M102 0l436 727h108l-436 -727h-108zM561 423h93v-272h48v-69h-48v-82h-84v304l-104 -153h20q12 0 21.5 -6.5t16.5 -16.5t12 -22.5t9 -23.5h-171v61zM277 638q0 -32 -21 -57t-56 -41q17 -4 33.5 -13.5t29 -23.5t20.5 -32.5t8 -40.5q0 -30 -12.5 -54t-34.5 -40.5t-52 -25.5 t-64 -9q-31 0 -59.5 9.5t-43.5 18.5l22 61q18 -8 39 -13.5t41 -5.5q34 0 54 18t20 44q0 32 -24 49t-75 17l-7 56l32 13q27 11 43.5 25.5t16.5 37.5q0 12 -12.5 23t-34.5 11q-32 0 -74 -14l-25 59q29 14 54.5 19.5t50.5 5.5q55 0 93 -23.5t38 -73.5z" glyph-name="threequarters" horiz-adv-x="716" unicode="¾"/><glyph d="M315 -221q-50 0 -92 11t-72 31.5t-47 51t-17 69.5q0 35 14.5 65t35.5 57.5t46.5 53t46.5 52t35.5 55t14.5 61.5h118q0 -46 -12.5 -81t-31 -63t-40.5 -51.5t-40.5 -45t-31 -42.5t-12.5 -46q0 -34 26 -54t69 -20q28 0 57 5.5t77 25.5l36 -94q-56 -25 -97 -33t-83 -8z M422 448q0 -17 -6.5 -32.5t-17.5 -27t-26 -18t-33 -6.5q-35 0 -58.5 24.5t-23.5 59.5t23.5 58.5t58.5 23.5t59 -23.5t24 -58.5z" glyph-name="questiondown" horiz-adv-x="583" unicode="¿"/><glyph d="M210 890h133l74 -125q-13 -3 -32.5 -3.5t-40.5 4t-40.5 15t-32.5 27.5zM208 159l-53 -159h-141l261 727h140l261 -727h-148l-180 541l-8 37l-9 -39l-85 -259l-12 -20l15 2h76q22 0 38 -10t28 -25t20.5 -33.5t13.5 -34.5h-217z" glyph-name="Agrave" horiz-adv-x="687" unicode="À"/><glyph d="M426 808q-15 -17 -35 -27t-40.5 -14.5t-39.5 -4.5t-32 3l86 125h133zM206 159l-53 -159h-141l261 727h140l261 -727h-148l-180 541l-8 37l-9 -39l-85 -259l-12 -20l15 2h76q22 0 38 -10t28 -25t20.5 -33.5t13.5 -34.5h-217z" glyph-name="Aacute" horiz-adv-x="687" unicode="Á"/><glyph d="M392 890l107 -116l-81 -18l-78 56l-76 -56l-80 18l105 116h103zM208 159l-53 -159h-141l261 727h140l261 -727h-148l-180 541l-8 37l-9 -39l-85 -259l-12 -20l15 2h76q22 0 38 -10t28 -25t20.5 -33.5t13.5 -34.5h-217z" glyph-name="Acircumflex" horiz-adv-x="687" unicode="Â"/><glyph d="M188 783q1 28 9.5 50t22.5 37t31.5 23t35.5 8q22 0 39 -8.5t31 -18t25.5 -18t22.5 -8.5q13 0 21 12.5t10 32.5l73 -6q-2 -32 -11.5 -54t-23 -36.5t-29.5 -21t-30 -6.5q-25 0 -42 8.5t-29.5 18t-23 18t-22.5 8.5q-11 0 -22 -9.5t-13 -35.5zM208 159l-53 -159h-141l261 727 h140l261 -727h-148l-180 541l-8 37l-9 -39l-85 -259l-12 -20l15 2h76q22 0 38 -10t28 -25t20.5 -33.5t13.5 -34.5h-217z" glyph-name="Atilde" horiz-adv-x="687" unicode="Ã"/><glyph d="M182 840q0 26 18.5 44.5t44.5 18.5t45 -18.5t19 -44.5t-19 -44.5t-45 -18.5t-44.5 18.5t-18.5 44.5zM377 840q0 26 18.5 44.5t44.5 18.5t45 -18.5t19 -44.5t-19 -44.5t-45 -18.5t-44.5 18.5t-18.5 44.5zM208 159l-53 -159h-141l261 727h140l261 -727h-148l-180 541l-8 37 l-9 -39l-85 -259l-12 -20l15 2h76q22 0 38 -10t28 -25t20.5 -33.5t13.5 -34.5h-217z" glyph-name="Adieresis" horiz-adv-x="687" unicode="Ä"/><glyph d="M209 159l-53 -159h-141l260 725q-38 27 -38 72q0 21 8.5 39t23.5 31t35 20.5t44 7.5q48 0 78 -26.5t30 -70.5q0 -23 -10.5 -42t-28.5 -32l260 -724h-148l-181 546l-7 28l-7 -29l-87 -265l-12 -20l13 2h78q22 0 38 -10t28 -25t20.5 -33.5t13.5 -34.5h-217zM347 760 q18 0 27.5 11t9.5 28t-9.5 28.5t-27.5 11.5q-17 0 -26 -11.5t-9 -29.5q0 -14 9 -26t26 -12z" glyph-name="Aring" horiz-adv-x="687" unicode="Å"/><glyph d="M218 159l-77 -159h-141l372 727h472v-103h-298l78 -521h291v-103h-409l-83 552l-3 37l-14 -35l-132 -274l-15 -20l20 2h67q22 0 38 -10t28 -25t20.5 -33.5t13.5 -34.5h-228zM626 331q6 18 14.5 36.5t22 32.5t32.5 23t45 9h114v-101h-228z" glyph-name="AE" horiz-adv-x="975" unicode="Æ"/><glyph d="M435 -12q-8 0 -15 0.5t-15 0.5l-7 -32q30 -7 55.5 -27t25.5 -53q0 -23 -11.5 -39.5t-29.5 -28t-40.5 -17t-45.5 -5.5q-35 0 -81 20l18 55q19 -7 33.5 -9.5t29.5 -2.5q17 0 28.5 6.5t11.5 17.5q0 15 -19.5 23t-54.5 12l23 88q-71 13 -125.5 46.5t-91.5 82t-56.5 109 t-19.5 129.5q0 78 26.5 146.5t76.5 119.5t122 80.5t162 29.5q42 0 85 -8t91 -26l-36 -92q-44 13 -75 18t-65 5q-60 0 -104 -23.5t-73 -61.5t-43.5 -87t-14.5 -101t14.5 -101t43.5 -87.5t73 -61.5t104 -23q67 0 139 34l37 -91q-45 -23 -89.5 -34.5t-86.5 -11.5z" glyph-name="Ccedilla" horiz-adv-x="652" unicode="Ç"/><glyph d="M67 727h436v-103h-293v-521h309v-103h-452v727zM248 331q5 16 13 34t20 33t28.5 24.5t38.5 9.5h121v-101h-221zM168 890h133l74 -125q-13 -3 -32.5 -3.5t-40.5 4t-40.5 15t-32.5 27.5z" glyph-name="Egrave" horiz-adv-x="577" unicode="È"/><glyph d="M67 727h436v-103h-293v-521h309v-103h-452v727zM248 331q5 16 13 34t20 33t28.5 24.5t38.5 9.5h121v-101h-221zM381 808q-15 -17 -35 -27t-40.5 -14.5t-39.5 -4.5t-32 3l86 125h133z" glyph-name="Eacute" horiz-adv-x="577" unicode="É"/><glyph d="M67 727h436v-103h-293v-521h309v-103h-452v727zM248 331q5 16 13 34t20 33t28.5 24.5t38.5 9.5h121v-101h-221zM354 890l107 -116l-81 -18l-78 56l-76 -56l-80 18l105 116h103z" glyph-name="Ecircumflex" horiz-adv-x="577" unicode="Ê"/><glyph d="M67 727h436v-103h-293v-521h309v-103h-452v727zM248 331q5 16 13 34t20 33t28.5 24.5t38.5 9.5h121v-101h-221zM139 840q0 26 18.5 44.5t44.5 18.5t45 -18.5t19 -44.5t-19 -44.5t-45 -18.5t-44.5 18.5t-18.5 44.5zM334 840q0 26 18.5 44.5t44.5 18.5t45 -18.5t19 -44.5 t-19 -44.5t-45 -18.5t-44.5 18.5t-18.5 44.5z" glyph-name="Edieresis" horiz-adv-x="577" unicode="Ë"/><glyph d="M212 0h-139v727h139v-727zM6 890h133l74 -125q-13 -3 -32.5 -3.5t-40.5 4t-40.5 15t-32.5 27.5z" glyph-name="Igrave" horiz-adv-x="279" unicode="Ì"/><glyph d="M204 0h-139v727h139v-727zM215 808q-15 -17 -35 -27t-40.5 -14.5t-39.5 -4.5t-32 3l86 125h133z" glyph-name="Iacute" horiz-adv-x="321" unicode="Í"/><glyph d="M229 0h-139v727h139v-727zM211 890l107 -116l-81 -18l-78 56l-76 -56l-80 18l105 116h103z" glyph-name="Icircumflex" horiz-adv-x="321" unicode="Î"/><glyph d="M243 0h-139v727h139v-727zM12 840q0 26 18.5 44.5t44.5 18.5t45 -18.5t19 -44.5t-19 -44.5t-45 -18.5t-44.5 18.5t-18.5 44.5zM207 840q0 26 18.5 44.5t44.5 18.5t45 -18.5t19 -44.5t-19 -44.5t-45 -18.5t-44.5 18.5t-18.5 44.5z" glyph-name="Idieresis" horiz-adv-x="350" unicode="Ï"/><glyph d="M347 91q57 0 98.5 24t68.5 63t39.5 88t12.5 99q0 59 -15.5 109t-48.5 86t-84.5 56.5t-123.5 20.5q-20 0 -41.5 -2t-44.5 -6v-228h203v-91h-203v-310h-141v310h-79v91h79v313q67 14 125 20t102 6q100 0 178.5 -25.5t133 -73.5t83 -117.5t28.5 -158.5q0 -79 -27 -148 t-74 -120t-112.5 -80t-141.5 -29q-14 0 -25.5 0.5t-24.5 2.5t-28.5 5t-37.5 9q6 13 15 28t21 28t28 21.5t37 8.5z" glyph-name="Eth" horiz-adv-x="713" unicode="Ð"/><glyph d="M218 511l-14 34l2 -34v-511h-122v727h138l309 -491l12 -33l-2 35v489h126v-727h-126zM217 783q1 28 9.5 50t22.5 37t31.5 23t35.5 8q22 0 39 -8.5t31 -18t25.5 -18t22.5 -8.5q13 0 21 12.5t10 32.5l73 -6q-2 -32 -11.5 -54t-23 -36.5t-29.5 -21t-30 -6.5q-25 0 -42 8.5 t-29.5 18t-23 18t-22.5 8.5q-11 0 -22 -9.5t-13 -35.5z" glyph-name="Ntilde" horiz-adv-x="749" unicode="Ñ"/><glyph d="M383 89q52 0 91 23.5t65.5 62t40 88t13.5 101.5q0 55 -13.5 105t-40 88t-65.5 60t-91 22t-91 -22t-65.5 -60t-40 -88t-13.5 -105q0 -52 13.5 -101.5t40 -88t65.5 -62t91 -23.5zM383 -14q-85 0 -152 28t-113.5 78t-71.5 119.5t-25 152.5q0 82 25.5 151t72.5 119.5t114 79 t150 28.5q84 0 151 -28t113.5 -78.5t71.5 -120t25 -151.5t-27 -151.5t-75 -119.5t-114 -78.5t-145 -28.5zM217 890h133l74 -125q-13 -3 -32.5 -3.5t-40.5 4t-40.5 15t-32.5 27.5z" glyph-name="Ograve" horiz-adv-x="791" unicode="Ò"/><glyph d="M381 89q52 0 91 23.5t65.5 62t40 88t13.5 101.5q0 55 -13.5 105t-40 88t-65.5 60t-91 22t-91 -22t-65.5 -60t-40 -88t-13.5 -105q0 -52 13.5 -101.5t40 -88t65.5 -62t91 -23.5zM381 -14q-85 0 -152 28t-113.5 78t-71.5 119.5t-25 152.5q0 82 25.5 151t72.5 119.5t114 79 t150 28.5q84 0 151 -28t113.5 -78.5t71.5 -120t25 -151.5t-27 -151.5t-75 -119.5t-114 -78.5t-145 -28.5zM477 808q-15 -17 -35 -27t-40.5 -14.5t-39.5 -4.5t-32 3l86 125h133z" glyph-name="Oacute" horiz-adv-x="791" unicode="Ó"/><glyph d="M381 89q52 0 91 23.5t65.5 62t40 88t13.5 101.5q0 55 -13.5 105t-40 88t-65.5 60t-91 22t-91 -22t-65.5 -60t-40 -88t-13.5 -105q0 -52 13.5 -101.5t40 -88t65.5 -62t91 -23.5zM381 -14q-85 0 -152 28t-113.5 78t-71.5 119.5t-25 152.5q0 82 25.5 151t72.5 119.5t114 79 t150 28.5q84 0 151 -28t113.5 -78.5t71.5 -120t25 -151.5t-27 -151.5t-75 -119.5t-114 -78.5t-145 -28.5zM435 890l107 -116l-81 -18l-78 56l-76 -56l-80 18l105 116h103z" glyph-name="Ocircumflex" horiz-adv-x="791" unicode="Ô"/><glyph d="M382 89q52 0 91 23.5t65.5 62t40 88t13.5 101.5q0 55 -13.5 105t-40 88t-65.5 60t-91 22t-91 -22t-65.5 -60t-40 -88t-13.5 -105q0 -52 13.5 -101.5t40 -88t65.5 -62t91 -23.5zM382 -14q-85 0 -152 28t-113.5 78t-71.5 119.5t-25 152.5q0 82 25.5 151t72.5 119.5t114 79 t150 28.5q84 0 151 -28t113.5 -78.5t71.5 -120t25 -151.5t-27 -151.5t-75 -119.5t-114 -78.5t-145 -28.5zM226 783q1 28 9.5 50t22.5 37t31.5 23t35.5 8q22 0 39 -8.5t31 -18t25.5 -18t22.5 -8.5q13 0 21 12.5t10 32.5l73 -6q-2 -32 -11.5 -54t-23 -36.5t-29.5 -21t-30 -6.5 q-25 0 -42 8.5t-29.5 18t-23 18t-22.5 8.5q-11 0 -22 -9.5t-13 -35.5z" glyph-name="Otilde" horiz-adv-x="791" unicode="Õ"/><glyph d="M382 89q52 0 91 23.5t65.5 62t40 88t13.5 101.5q0 55 -13.5 105t-40 88t-65.5 60t-91 22t-91 -22t-65.5 -60t-40 -88t-13.5 -105q0 -52 13.5 -101.5t40 -88t65.5 -62t91 -23.5zM382 -14q-85 0 -152 28t-113.5 78t-71.5 119.5t-25 152.5q0 82 25.5 151t72.5 119.5t114 79 t150 28.5q84 0 151 -28t113.5 -78.5t71.5 -120t25 -151.5t-27 -151.5t-75 -119.5t-114 -78.5t-145 -28.5zM223 840q0 26 18.5 44.5t44.5 18.5t45 -18.5t19 -44.5t-19 -44.5t-45 -18.5t-44.5 18.5t-18.5 44.5zM418 840q0 26 18.5 44.5t44.5 18.5t45 -18.5t19 -44.5t-19 -44.5 t-45 -18.5t-44.5 18.5t-18.5 44.5z" glyph-name="Odieresis" horiz-adv-x="791" unicode="Ö"/><glyph d="M39 139l166 167l-166 165l76 75l166 -165l164 165l75 -75l-164 -165l166 -167l-75 -75l-166 166l-167 -166z" glyph-name="multiply" horiz-adv-x="568" unicode="×"/><glyph d="M616 665q61 -51 94 -128t33 -173q0 -82 -27 -151.5t-75 -119.5t-114 -78.5t-145 -28.5q-41 0 -77 6.5t-68 18.5l-41 -71h-119l72 122q-63 51 -96 128t-33 174q0 82 25.5 151t72.5 119.5t114 79t150 28.5q80 0 144 -26l44 73h119zM382 89q52 0 91 23.5t65.5 62t40 88 t13.5 101.5t-11.5 98.5t-34.5 83.5l-238 -402q-11 15 -22 32t-17 36t-5.5 39.5t11.5 42.5l194 325q-38 20 -87 20q-52 0 -91 -22t-65.5 -60t-40 -88t-13.5 -105q0 -52 13.5 -101.5t40 -88t65.5 -62t91 -23.5z" glyph-name="Oslash" horiz-adv-x="791" unicode="Ø"/><glyph d="M348 -14q-67 0 -121 19t-91.5 56t-58 91.5t-20.5 125.5v449h141v-464q0 -41 11.5 -73t31.5 -54.5t47.5 -34.5t59.5 -12t59.5 12t47.5 34.5t31.5 54.5t11.5 73v464h140v-449q0 -66 -20 -120t-57.5 -92.5t-91.5 -59t-121 -20.5zM200 890h133l74 -125q-13 -3 -32.5 -3.5 t-40.5 4t-40.5 15t-32.5 27.5z" glyph-name="Ugrave" horiz-adv-x="694" unicode="Ù"/><glyph d="M347 -14q-67 0 -121 19t-91.5 56t-58 91.5t-20.5 125.5v449h141v-464q0 -41 11.5 -73t31.5 -54.5t47.5 -34.5t59.5 -12t59.5 12t47.5 34.5t31.5 54.5t11.5 73v464h140v-449q0 -66 -20 -120t-57.5 -92.5t-91.5 -59t-121 -20.5zM437 808q-15 -17 -35 -27t-40.5 -14.5 t-39.5 -4.5t-32 3l86 125h133z" glyph-name="Uacute" horiz-adv-x="694" unicode="Ú"/><glyph d="M347 -14q-67 0 -121 19t-91.5 56t-58 91.5t-20.5 125.5v449h141v-464q0 -41 11.5 -73t31.5 -54.5t47.5 -34.5t59.5 -12t59.5 12t47.5 34.5t31.5 54.5t11.5 73v464h140v-449q0 -66 -20 -120t-57.5 -92.5t-91.5 -59t-121 -20.5zM398 890l107 -116l-81 -18l-78 56l-76 -56 l-80 18l105 116h103z" glyph-name="Ucircumflex" horiz-adv-x="694" unicode="Û"/><glyph d="M346 -14q-67 0 -121 19t-91.5 56t-58 91.5t-20.5 125.5v449h141v-464q0 -41 11.5 -73t31.5 -54.5t47.5 -34.5t59.5 -12t59.5 12t47.5 34.5t31.5 54.5t11.5 73v464h140v-449q0 -66 -20 -120t-57.5 -92.5t-91.5 -59t-121 -20.5zM187 840q0 26 18.5 44.5t44.5 18.5t45 -18.5 t19 -44.5t-19 -44.5t-45 -18.5t-44.5 18.5t-18.5 44.5zM382 840q0 26 18.5 44.5t44.5 18.5t45 -18.5t19 -44.5t-19 -44.5t-45 -18.5t-44.5 18.5t-18.5 44.5z" glyph-name="Udieresis" horiz-adv-x="694" unicode="Ü"/><glyph d="M394 339v-339h-138v322l-251 405h156zM482 727h154l-212 -350q-10 13 -21.5 33.5t-19 45t-8 51t12.5 50.5zM433 808q-15 -17 -35 -27t-40.5 -14.5t-39.5 -4.5t-32 3l86 125h133z" glyph-name="Yacute" horiz-adv-x="660" unicode="Ý"/><glyph d="M577 364q0 -52 -19.5 -92.5t-52 -69.5t-74 -46t-86.5 -21q-23 -2 -48 -0.5t-53 9.5q6 14 13.5 29.5t18 28.5t24 22t30.5 11q21 2 39 12.5t31.5 27.5t21.5 40t8 49q0 56 -38 93t-101 37q-14 0 -23.5 -0.5t-18.5 -1t-19 -2t-23 -2.5v-488h-136v727h136v-133q21 2 41 2.5 t43 0.5q61 0 113 -15.5t90.5 -45.5t60.5 -73.5t22 -98.5z" glyph-name="Thorn" horiz-adv-x="609" unicode="Þ"/><glyph d="M284 115q32 -14 55.5 -18.5t38.5 -4.5q27 0 45 14.5t18 37.5q0 21 -13 37.5t-32 32t-42 32t-42 38t-32 50t-13 67.5q0 22 8.5 43.5t23.5 40.5t36 35t47 26q3 11 3.5 21t0.5 21q0 32 -23.5 53.5t-61.5 21.5q-44 0 -72 -28.5t-28 -79.5v-555l-133 -1v545q0 56 18 97t49 68 t72 40.5t87 13.5t83.5 -12.5t63.5 -35.5t40 -55.5t14 -71.5q0 -51 -38 -112q-34 -14 -51 -31.5t-17 -43.5q0 -22 13 -38t32 -31.5t42 -31.5t42 -37.5t32 -51t13 -70.5q0 -37 -14.5 -65.5t-38 -48t-54 -29.5t-62.5 -10q-30 0 -63.5 6.5t-81.5 30.5z" glyph-name="germandbls" horiz-adv-x="567" unicode="ß"/><glyph d="M107 740h134l73 -138q-13 -3 -31 -3t-38 5.5t-39.5 16t-34.5 28.5zM384 0q-17 9 -26.5 27t-15.5 36q-25 -24 -45.5 -38.5t-39.5 -23t-37.5 -11.5t-38.5 -3q-36 0 -64.5 12.5t-49 33.5t-31 48t-10.5 57q0 31 13 60t44.5 52.5t84.5 40t132 22.5q-5 -35 -20.5 -61t-47.5 -32 q-38 -6 -55 -25t-17 -44q0 -26 18.5 -43.5t44.5 -17.5q29 0 58 19.5t55 50.5v151q0 52 -28.5 83t-81.5 31q-25 0 -53.5 -5t-63.5 -18l-34 88q45 20 84.5 29t74.5 9q118 0 177.5 -55.5t59.5 -161.5v-185q0 -28 3.5 -59.5t12.5 -66.5h-103z" glyph-name="agrave" unicode="à"/><glyph d="M347 645q-15 -18 -34.5 -28t-40 -14.5t-39.5 -4t-32 3.5l86 138h139zM384 0q-17 9 -26.5 27t-15.5 36q-25 -24 -45.5 -38.5t-39.5 -23t-37.5 -11.5t-38.5 -3q-36 0 -64.5 12.5t-49 33.5t-31 48t-10.5 57q0 31 13 60t44.5 52.5t84.5 40t132 22.5q-5 -35 -20.5 -61 t-47.5 -32q-38 -6 -55 -25t-17 -44q0 -26 18.5 -43.5t44.5 -17.5q29 0 58 19.5t55 50.5v151q0 52 -28.5 83t-81.5 31q-25 0 -53.5 -5t-63.5 -18l-34 88q45 20 84.5 29t74.5 9q118 0 179 -55.5t61 -161.5v-185q0 -28 3.5 -59.5t12.5 -66.5h-106z" glyph-name="aacute" unicode="á"/><glyph d="M318 743l107 -140l-81 -18l-78 73l-76 -73l-80 18l105 140h103zM384 0q-17 9 -26.5 27t-15.5 36q-25 -24 -45.5 -38.5t-39.5 -23t-37.5 -11.5t-38.5 -3q-36 0 -64.5 12.5t-49 33.5t-31 48t-10.5 57q0 31 13 60t44.5 52.5t84.5 40t132 22.5q-5 -35 -20.5 -61t-47.5 -32 q-38 -6 -55 -25t-17 -44q0 -26 18.5 -43.5t44.5 -17.5q29 0 58 19.5t55 50.5v151q0 52 -28.5 83t-81.5 31q-25 0 -53.5 -5t-63.5 -18l-34 88q45 20 84.5 29t74.5 9q118 0 179 -55.5t61 -161.5v-185q0 -28 3.5 -59.5t12.5 -66.5h-106z" glyph-name="acircumflex" unicode="â"/><glyph d="M105 624q1 28 9.5 50t22.5 37t31.5 23t35.5 8q22 0 39 -8.5t31 -18t25.5 -18t22.5 -8.5q13 0 21 12.5t10 32.5l73 -6q-2 -32 -11.5 -54t-23 -36.5t-29.5 -21t-30 -6.5q-25 0 -42 8.5t-29.5 18t-23 18t-22.5 8.5q-11 0 -22 -9.5t-13 -35.5zM385 0q-17 9 -26.5 27t-15.5 36 q-25 -24 -45.5 -38.5t-39.5 -23t-37.5 -11.5t-38.5 -3q-36 0 -64.5 12.5t-49 33.5t-31 48t-10.5 57q0 31 13 60t44.5 52.5t84.5 40t132 22.5q-5 -35 -20.5 -61t-47.5 -32q-38 -6 -55 -25t-17 -44q0 -26 18.5 -43.5t44.5 -17.5q29 0 58 19.5t55 50.5v151q0 52 -28.5 83 t-81.5 31q-25 0 -53.5 -5t-63.5 -18l-34 88q45 20 84.5 29t74.5 9q118 0 179 -55.5t61 -161.5v-185q0 -28 3.5 -59.5t12.5 -66.5h-106z" glyph-name="atilde" unicode="ã"/><glyph d="M107 670q0 26 18.5 44.5t44.5 18.5t45 -18.5t19 -44.5t-19 -44.5t-45 -18.5t-44.5 18.5t-18.5 44.5zM385 0q-17 9 -26.5 27t-15.5 36q-25 -24 -45.5 -38.5t-39.5 -23t-37.5 -11.5t-38.5 -3q-36 0 -64.5 12.5t-49 33.5t-31 48t-10.5 57q0 31 13 60t44.5 52.5t84.5 40 t132 22.5q-5 -35 -20.5 -61t-47.5 -32q-38 -6 -55 -25t-17 -44q0 -26 18.5 -43.5t44.5 -17.5q29 0 58 19.5t55 50.5v151q0 52 -28.5 83t-81.5 31q-25 0 -53.5 -5t-63.5 -18l-34 88q45 20 84.5 29t74.5 9q118 0 179 -55.5t61 -161.5v-185q0 -28 3.5 -59.5t12.5 -66.5h-106z M302 670q0 26 18.5 44.5t44.5 18.5t45 -18.5t19 -44.5t-19 -44.5t-45 -18.5t-44.5 18.5t-18.5 44.5z" glyph-name="adieresis" unicode="ä"/><glyph d="M385 0q-17 9 -26.5 27t-15.5 36q-25 -24 -45.5 -38.5t-39.5 -23t-37.5 -11.5t-38.5 -3q-36 0 -64.5 12.5t-49 33.5t-31 48t-10.5 57q0 31 13 60t44.5 52.5t84.5 40t132 22.5q-5 -35 -20.5 -61t-47.5 -32q-38 -6 -55 -25t-17 -44q0 -26 18.5 -43.5t44.5 -17.5 q29 0 58 19.5t55 50.5v151q0 52 -28.5 83t-81.5 31q-25 0 -53.5 -5t-63.5 -18l-34 88q45 20 92 29t82 9q107 0 166 -55.5t59 -161.5v-185q0 -28 3.5 -59.5t12.5 -66.5h-106zM267 560q-48 0 -79 26.5t-31 66.5q0 21 8.5 39t23.5 31t35 20.5t44 7.5q48 0 78 -26.5t30 -70.5 q0 -21 -8.5 -38t-23.5 -29.5t-35 -19.5t-42 -7zM267 616q18 0 27.5 11t9.5 28t-9.5 28.5t-27.5 11.5q-17 0 -26 -11.5t-9 -29.5q0 -14 9 -26t26 -12z" glyph-name="aring" unicode="å"/><glyph d="M680 317q3 23 -2 44t-16.5 37t-29 25.5t-40.5 9.5q-21 0 -41.5 -9t-37.5 -28.5t-27.5 -50t-10.5 -73.5q0 -87 39 -134.5t102 -47.5q35 0 68.5 8.5t77.5 28.5l35 -93q-54 -26 -101.5 -36.5t-94.5 -10.5q-35 0 -67 12t-57.5 31t-43.5 43t-26 48q-16 -36 -39.5 -61 t-51 -41.5t-56 -24t-53.5 -7.5q-40 0 -73 10.5t-57 30t-37 47.5t-13 63q0 31 13 60t44.5 52.5t84.5 40t132 22.5q-5 -35 -20.5 -61t-47.5 -32q-38 -6 -55 -25t-17 -44q0 -26 18.5 -43.5t44.5 -17.5t47 13t35.5 36t22.5 55t8 71v46q0 52 -28.5 83t-81.5 31q-25 0 -53.5 -5 t-63.5 -18l-34 88q45 20 92 29t82 9q48 0 93 -27t74 -81q14 25 34.5 45.5t44.5 34.5t50.5 22t52.5 8q55 0 101 -22t74 -61t34.5 -93.5t-15.5 -118.5h-280q11 35 31.5 58.5t46.5 23.5h89z" glyph-name="ae" horiz-adv-x="850" unicode="æ"/><glyph d="M285 530q27 0 59 -5.5t62 -16.5l-34 -93q-24 6 -47 9t-40 3q-54 0 -87 -45t-33 -123q0 -79 33 -124t87 -45q21 0 45 5.5t56 18.5l34 -92q-38 -17 -72 -25.5t-61 -9.5l-7 -30q30 -7 55.5 -27t25.5 -53q0 -23 -11.5 -39.5t-29.5 -28t-40.5 -17t-45.5 -5.5q-35 0 -81 20 l18 55q19 -7 33.5 -9.5t29.5 -2.5q17 0 28.5 6.5t11.5 17.5q0 15 -19.5 23t-54.5 12l22 84q-42 8 -79.5 27.5t-65.5 52t-44 79t-16 107.5q0 68 22.5 119t59.5 84.5t85.5 50.5t100.5 17z" glyph-name="ccedilla" horiz-adv-x="427" unicode="ç"/><glyph d="M377 317q3 23 -2 44t-16.5 37t-29 25.5t-40.5 9.5q-21 0 -41.5 -9t-37.5 -28.5t-27.5 -50t-10.5 -73.5q0 -87 39 -134.5t102 -47.5q35 0 68.5 8.5t77.5 28.5l35 -93q-54 -26 -101.5 -36.5t-94.5 -10.5q-69 0 -118.5 25t-82 64.5t-48 89.5t-15.5 101q0 62 20.5 111 t56 82.5t83.5 51.5t102 18q55 0 101 -22t74 -61t34.5 -93.5t-15.5 -118.5h-280q11 35 31.5 58.5t46.5 23.5h89zM133 740h134l73 -138q-13 -3 -31 -3t-38 5.5t-39.5 16t-34.5 28.5z" glyph-name="egrave" horiz-adv-x="544" unicode="è"/><glyph d="M376 317q3 23 -2 44t-16.5 37t-29 25.5t-40.5 9.5q-21 0 -41.5 -9t-37.5 -28.5t-27.5 -50t-10.5 -73.5q0 -87 39 -134.5t102 -47.5q35 0 68.5 8.5t77.5 28.5l35 -93q-54 -26 -101.5 -36.5t-94.5 -10.5q-69 0 -118.5 25t-82 64.5t-48 89.5t-15.5 101q0 62 20.5 111 t56 82.5t83.5 51.5t102 18q55 0 101 -22t74 -61t34.5 -93.5t-15.5 -118.5h-280q11 35 31.5 58.5t46.5 23.5h89zM372 645q-15 -18 -34.5 -28t-40 -14.5t-39.5 -4t-32 3.5l86 138h139z" glyph-name="eacute" horiz-adv-x="544" unicode="é"/><glyph d="M375 317q3 23 -2 44t-16.5 37t-29 25.5t-40.5 9.5q-21 0 -41.5 -9t-37.5 -28.5t-27.5 -50t-10.5 -73.5q0 -87 39 -134.5t102 -47.5q35 0 68.5 8.5t77.5 28.5l35 -93q-54 -26 -101.5 -36.5t-94.5 -10.5q-69 0 -118.5 25t-82 64.5t-48 89.5t-15.5 101q0 62 20.5 111 t56 82.5t83.5 51.5t102 18q55 0 101 -22t74 -61t34.5 -93.5t-15.5 -118.5h-280q11 35 31.5 58.5t46.5 23.5h89zM343 743l107 -140l-81 -18l-78 73l-76 -73l-80 18l105 140h103z" glyph-name="ecircumflex" horiz-adv-x="544" unicode="ê"/><glyph d="M377 317q3 23 -2 44t-16.5 37t-29 25.5t-40.5 9.5q-21 0 -41.5 -9t-37.5 -28.5t-27.5 -50t-10.5 -73.5q0 -87 39 -134.5t102 -47.5q35 0 68.5 8.5t77.5 28.5l35 -93q-54 -26 -101.5 -36.5t-94.5 -10.5q-69 0 -118.5 25t-82 64.5t-48 89.5t-15.5 101q0 62 20.5 111 t56 82.5t83.5 51.5t102 18q55 0 101 -22t74 -61t34.5 -93.5t-15.5 -118.5h-280q11 35 31.5 58.5t46.5 23.5h89zM124 670q0 26 18.5 44.5t44.5 18.5t45 -18.5t19 -44.5t-19 -44.5t-45 -18.5t-44.5 18.5t-18.5 44.5zM319 670q0 26 18.5 44.5t44.5 18.5t45 -18.5t19 -44.5 t-19 -44.5t-45 -18.5t-44.5 18.5t-18.5 44.5z" glyph-name="edieresis" horiz-adv-x="544" unicode="ë"/><glyph d="M89 0v517h140v-517h-140zM-3 740h134l73 -138q-13 -3 -31 -3t-38 5.5t-39.5 16t-34.5 28.5z" glyph-name="igrave" horiz-adv-x="276" unicode="ì"/><glyph d="M48 0v517h140v-517h-140zM201 645q-15 -18 -34.5 -28t-40 -14.5t-39.5 -4t-32 3.5l86 138h139z" glyph-name="iacute" horiz-adv-x="273" unicode="í"/><glyph d="M97 0v517h140v-517h-140zM219 743l107 -140l-81 -18l-78 73l-76 -73l-80 18l105 140h103z" glyph-name="icircumflex" horiz-adv-x="337" unicode="î"/><glyph d="M106 0v517h140v-517h-140zM14 670q0 26 18.5 44.5t44.5 18.5t45 -18.5t19 -44.5t-19 -44.5t-45 -18.5t-44.5 18.5t-18.5 44.5zM209 670q0 26 18.5 44.5t44.5 18.5t45 -18.5t19 -44.5t-19 -44.5t-45 -18.5t-44.5 18.5t-18.5 44.5z" glyph-name="idieresis" horiz-adv-x="352" unicode="ï"/><glyph d="M550 259q0 -58 -21 -107.5t-57 -86t-85 -57.5t-105 -21t-105 19t-85 54.5t-57 85.5t-21 113q0 57 21 106.5t57 86t85 57.5t105 21q17 0 37 -3.5t37 -11.5q-39 48 -89 85l-115 -54l-27 58l79 38q-21 12 -42 23t-42 21l43 76q36 -15 71 -33t67 -41l110 53l29 -59l-80 -38 q42 -36 77 -78t60 -90.5t39 -102.5t14 -114zM162 259q0 -35 8 -66t23 -54t37.5 -36.5t51.5 -13.5t51.5 13.5t37.5 36.5t22.5 54t7.5 66t-7.5 65.5t-22.5 53.5t-37.5 36.5t-51.5 13.5t-51.5 -13.5t-37.5 -36.5t-23 -53.5t-8 -65.5z" glyph-name="eth" horiz-adv-x="557" unicode="ð"/><glyph d="M163 517q24 -27 32 -53.5t8 -56.5v-407h-140v391q0 58 -16 126h116zM386 367q0 25 -10 41t-36 16q-10 0 -19 -2.5t-23 -3.5q-12 -1 -22 5t-18.5 15.5t-16 21.5t-14.5 24q50 26 87 36t72 10q26 0 51 -10t44.5 -30t31.5 -50t12 -71v-369h-139v367zM132 624q1 28 9.5 50 t22.5 37t31.5 23t35.5 8q22 0 39 -8.5t31 -18t25.5 -18t22.5 -8.5q13 0 21 12.5t10 32.5l73 -6q-2 -32 -11.5 -54t-23 -36.5t-29.5 -21t-30 -6.5q-25 0 -42 8.5t-29.5 18t-23 18t-22.5 8.5q-11 0 -22 -9.5t-13 -35.5z" glyph-name="ntilde" horiz-adv-x="596" unicode="ñ"/><glyph d="M549 259q0 -58 -21 -107.5t-57 -86t-85 -57.5t-105 -21t-105 19t-85 54.5t-57 85.5t-21 113q0 57 21 106.5t57 86t85 57.5t105 21t105 -19t85 -54.5t57 -85.5t21 -112zM161 259q0 -35 8 -66t23 -54t37.5 -36.5t51.5 -13.5t51.5 13.5t37.5 36.5t22.5 54t7.5 66t-7.5 65.5 t-22.5 53.5t-37.5 36.5t-51.5 13.5t-51.5 -13.5t-37.5 -36.5t-23 -53.5t-8 -65.5zM134 740h134l73 -138q-13 -3 -31 -3t-38 5.5t-39.5 16t-34.5 28.5z" glyph-name="ograve" horiz-adv-x="566" unicode="ò"/><glyph d="M549 259q0 -58 -21 -107.5t-57 -86t-85 -57.5t-105 -21t-105 19t-85 54.5t-57 85.5t-21 113q0 57 21 106.5t57 86t85 57.5t105 21t105 -19t85 -54.5t57 -85.5t21 -112zM161 259q0 -35 8 -66t23 -54t37.5 -36.5t51.5 -13.5t51.5 13.5t37.5 36.5t22.5 54t7.5 66t-7.5 65.5 t-22.5 53.5t-37.5 36.5t-51.5 13.5t-51.5 -13.5t-37.5 -36.5t-23 -53.5t-8 -65.5zM364 645q-15 -18 -34.5 -28t-40 -14.5t-39.5 -4t-32 3.5l86 138h139z" glyph-name="oacute" horiz-adv-x="566" unicode="ó"/><glyph d="M549 259q0 -58 -21 -107.5t-57 -86t-85 -57.5t-105 -21t-105 19t-85 54.5t-57 85.5t-21 113q0 57 21 106.5t57 86t85 57.5t105 21t105 -19t85 -54.5t57 -85.5t21 -112zM161 259q0 -35 8 -66t23 -54t37.5 -36.5t51.5 -13.5t51.5 13.5t37.5 36.5t22.5 54t7.5 66t-7.5 65.5 t-22.5 53.5t-37.5 36.5t-51.5 13.5t-51.5 -13.5t-37.5 -36.5t-23 -53.5t-8 -65.5zM332 743l107 -140l-81 -18l-78 73l-76 -73l-80 18l105 140h103z" glyph-name="ocircumflex" horiz-adv-x="566" unicode="ô"/><glyph d="M549 259q0 -58 -21 -107.5t-57 -86t-85 -57.5t-105 -21t-105 19t-85 54.5t-57 85.5t-21 113q0 57 21 106.5t57 86t85 57.5t105 21t105 -19t85 -54.5t57 -85.5t21 -112zM161 259q0 -35 8 -66t23 -54t37.5 -36.5t51.5 -13.5t51.5 13.5t37.5 36.5t22.5 54t7.5 66t-7.5 65.5 t-22.5 53.5t-37.5 36.5t-51.5 13.5t-51.5 -13.5t-37.5 -36.5t-23 -53.5t-8 -65.5zM121 624q1 28 9.5 50t22.5 37t31.5 23t35.5 8q22 0 39 -8.5t31 -18t25.5 -18t22.5 -8.5q13 0 21 12.5t10 32.5l73 -6q-2 -32 -11.5 -54t-23 -36.5t-29.5 -21t-30 -6.5q-25 0 -42 8.5 t-29.5 18t-23 18t-22.5 8.5q-11 0 -22 -9.5t-13 -35.5z" glyph-name="otilde" horiz-adv-x="566" unicode="õ"/><glyph d="M548 259q0 -58 -21 -107.5t-57 -86t-85 -57.5t-105 -21t-105 19t-85 54.5t-57 85.5t-21 113q0 57 21 106.5t57 86t85 57.5t105 21t105 -19t85 -54.5t57 -85.5t21 -112zM160 259q0 -35 8 -66t23 -54t37.5 -36.5t51.5 -13.5t51.5 13.5t37.5 36.5t22.5 54t7.5 66t-7.5 65.5 t-22.5 53.5t-37.5 36.5t-51.5 13.5t-51.5 -13.5t-37.5 -36.5t-23 -53.5t-8 -65.5zM120 670q0 26 18.5 44.5t44.5 18.5t45 -18.5t19 -44.5t-19 -44.5t-45 -18.5t-44.5 18.5t-18.5 44.5zM315 670q0 26 18.5 44.5t44.5 18.5t45 -18.5t19 -44.5t-19 -44.5t-45 -18.5t-44.5 18.5 t-18.5 44.5z" glyph-name="odieresis" horiz-adv-x="566" unicode="ö"/><glyph d="M219 112q0 28 17 45.5t44 17.5q28 0 45.5 -17.5t17.5 -45.5q0 -27 -17.5 -44t-45.5 -17q-27 0 -44 17t-17 44zM47 353h468v-96h-468v96zM220 494q0 27 17 44.5t43 17.5q27 0 44.5 -17.5t17.5 -44.5q0 -26 -17.5 -43t-44.5 -17q-26 0 -43 17t-17 43z" glyph-name="divide" horiz-adv-x="568" unicode="÷"/><glyph d="M547 259q0 -58 -20.5 -107.5t-56.5 -86t-84.5 -57.5t-104.5 -21q-26 0 -50.5 4t-47.5 12l-40 -69h-97l64 109q-45 35 -69.5 90t-24.5 126q0 57 20.5 106.5t56 86t84 57.5t104.5 21t107 -20l38 63h94l-62 -105q42 -36 65.5 -89t23.5 -120zM159 259q0 -35 8 -66t23.5 -54 t38.5 -36.5t52 -13.5t51.5 13.5t38 36.5t23.5 54t8 66q0 24 -4.5 46t-12.5 41l-129 -218q-9 10 -17.5 23t-13.5 28t-5 31.5t9 34.5l102 170q-24 13 -50 13q-29 0 -52 -13.5t-38.5 -36.5t-23.5 -53.5t-8 -65.5z" glyph-name="oslash" horiz-adv-x="500" unicode="ø"/><glyph d="M409 0q-23 27 -31 53.5t-8 56.5v407h140v-391q0 -58 16 -126h-117zM187 150q0 -25 10 -41t36 -16q10 0 19 2.5t23 3.5q12 1 21.5 -5t18.5 -15.5t16.5 -21.5t14.5 -24q-50 -26 -87 -36t-72 -10q-26 0 -51 10t-44.5 30t-31.5 50t-12 71v369h139v-367zM128 740h134l73 -138 q-13 -3 -31 -3t-38 5.5t-39.5 16t-34.5 28.5z" glyph-name="ugrave" horiz-adv-x="587" unicode="ù"/><glyph d="M411 0q-23 27 -31 53.5t-8 56.5v407h140v-391q0 -58 16 -126h-117zM189 150q0 -25 10 -41t36 -16q10 0 19 2.5t23 3.5q12 1 21.5 -5t18.5 -15.5t16.5 -21.5t14.5 -24q-50 -26 -87 -36t-72 -10q-26 0 -51 10t-44.5 30t-31.5 50t-12 71v369h139v-367zM376 645 q-15 -18 -34.5 -28t-40 -14.5t-39.5 -4t-32 3.5l86 138h139z" glyph-name="uacute" horiz-adv-x="587" unicode="ú"/><glyph d="M411 0q-23 27 -31 53.5t-8 56.5v407h140v-391q0 -58 16 -126h-117zM189 150q0 -25 10 -41t36 -16q10 0 19 2.5t23 3.5q12 1 21.5 -5t18.5 -15.5t16.5 -21.5t14.5 -24q-50 -26 -87 -36t-72 -10q-26 0 -51 10t-44.5 30t-31.5 50t-12 71v369h139v-367zM332 743l107 -140 l-81 -18l-78 73l-76 -73l-80 18l105 140h103z" glyph-name="ucircumflex" horiz-adv-x="587" unicode="û"/><glyph d="M410 0q-23 27 -31 53.5t-8 56.5v407h140v-391q0 -58 16 -126h-117zM188 150q0 -25 10 -41t36 -16q10 0 19 2.5t23 3.5q12 1 21.5 -5t18.5 -15.5t16.5 -21.5t14.5 -24q-50 -26 -87 -36t-72 -10q-26 0 -51 10t-44.5 30t-31.5 50t-12 71v369h139v-367zM124 670 q0 26 18.5 44.5t44.5 18.5t45 -18.5t19 -44.5t-19 -44.5t-45 -18.5t-44.5 18.5t-18.5 44.5zM319 670q0 26 18.5 44.5t44.5 18.5t45 -18.5t19 -44.5t-19 -44.5t-45 -18.5t-44.5 18.5t-18.5 44.5z" glyph-name="udieresis" horiz-adv-x="587" unicode="ü"/><glyph d="M109 -146q26 0 45 12t34 35t27.5 57t27.5 79l148 480h143l-183 -506q-25 -65 -47 -113.5t-48 -80.5t-61 -48.5t-86 -16.5q-20 1 -43.5 4.5t-47.5 14.5l32 90q17 -5 31 -6t28 -1zM217 281q10 -33 11 -71t-5 -74.5t-16.5 -69t-23.5 -53.5l-186 504h150zM358 645 q-15 -18 -34.5 -28t-40 -14.5t-39.5 -4t-32 3.5l86 138h139z" glyph-name="yacute" horiz-adv-x="529" unicode="ý"/><glyph d="M73 758h132v-660q23 -6 42 -8t39 -2q29 0 52.5 14t40 39t25 60t8.5 76q0 24 -4.5 50.5t-15 48.5t-27.5 36t-42 13q-17 -1 -29 5.5t-21 17t-17 25t-15 29.5q29 12 58.5 18t55.5 6q48 0 86 -22t64.5 -57.5t41 -80t14.5 -89.5q0 -61 -19 -114.5t-55 -93t-87 -62t-114 -22.5 q-21 0 -41 1.5t-40 5.5v-233h-132v999z" glyph-name="thorn" horiz-adv-x="598" unicode="þ"/><glyph d="M108 -146q26 0 45 12t34 35t27.5 57t27.5 79l148 480h143l-183 -506q-25 -65 -47 -113.5t-48 -80.5t-61 -48.5t-86 -16.5q-20 1 -43.5 4.5t-47.5 14.5l32 90q17 -5 31 -6t28 -1zM216 281q10 -33 11 -71t-5 -74.5t-16.5 -69t-23.5 -53.5l-186 504h150zM106 670 q0 26 18.5 44.5t44.5 18.5t45 -18.5t19 -44.5t-19 -44.5t-45 -18.5t-44.5 18.5t-18.5 44.5zM301 670q0 26 18.5 44.5t44.5 18.5t45 -18.5t19 -44.5t-19 -44.5t-45 -18.5t-44.5 18.5t-18.5 44.5z" glyph-name="ydieresis" horiz-adv-x="529" unicode="ÿ"/><glyph d="M69 426q0 17 6.5 32.5t17.5 27t26 18t33 6.5q35 0 58.5 -24.5t23.5 -59.5t-23.5 -58.5t-58.5 -23.5t-59 23.5t-24 58.5zM90 98h122v-78q0 -35 -7 -65t-21.5 -51t-37.5 -30t-56 -2v226z" glyph-name="semicolon" horiz-adv-x="299" unicode=";"/><glyph d="M402 270l26 6l-26 7l-347 139v130l517 -231v-90l-517 -231v131z" glyph-name="greater" horiz-adv-x="613" unicode="&gt;"/><glyph d="M343 -199h-303v104h171v762h-171v104h303v-970z" glyph-name="bracketright" horiz-adv-x="447" unicode="]"/><glyph d="M230 -62l-243 789h121l243 -789h-121z" glyph-name="backslash" horiz-adv-x="332" unicode="\"/><glyph d="M27 727h122v-78q0 -35 -7 -65t-21.5 -51t-37.5 -30t-56 -2v226z" glyph-name="quoteright" horiz-adv-x="191" unicode="’"/><glyph d="M33 727h122v-78q0 -35 -7 -65t-21.5 -51t-37.5 -30t-56 -2v226zM237 727h122v-78q0 -35 -7 -65t-21.5 -51t-37.5 -30t-56 -2v226z" glyph-name="quotedblright" horiz-adv-x="416" unicode="”"/></font>
</defs>
</svg>
