<svg height="512" width="512" xmlns="http://www.w3.org/2000/svg"><mask id="prefix__b"><path style="transform-origin:center" fill="#fff" d="M500.629 311.332l-27.961-16.145c-30.16-17.414-30.188-60.949 0-78.375l27.96-16.144c7.173-4.145 9.63-13.316 5.49-20.488L445.874 75.824c-4.137-7.168-13.316-9.633-20.492-5.492l-27.961 16.145c-30.156 17.41-67.863-4.325-67.863-39.188V15c0-8.285-6.715-15-15-15H194.07c-8.28 0-15 6.715-15 15v32.29c0 34.827-37.672 56.616-67.863 39.187l-27.96-16.145c-7.169-4.14-16.349-1.684-20.493 5.492L2.512 180.18C-1.628 187.352.828 196.527 8 200.668l27.96 16.144c30.161 17.415 30.188 60.95 0 78.375L8.005 311.332c-7.176 4.145-9.633 13.316-5.492 20.488l60.242 104.356c4.137 7.168 13.316 9.637 20.492 5.492l27.961-16.145c30.152-17.414 67.863 4.32 67.863 39.188V497c0 8.285 6.715 15 15 15h120.485c8.285 0 15-6.715 15-15v-32.29c0-34.82 37.672-56.62 67.867-39.187l27.96 16.145c7.169 4.14 16.348 1.684 20.49-5.492l60.245-104.356c4.14-7.172 1.684-16.343-5.488-20.488zM254.316 361c-57.894 0-104.992-47.102-104.992-105s47.098-105 104.992-105c57.891 0 104.989 47.102 104.989 105s-47.098 105-104.989 105zm0 0" transform="scale(.43)"/></mask><mask id="prefix__a"><path style="transform-origin:center" fill="#fff" d="M500.629 311.332l-27.961-16.145c-30.16-17.414-30.188-60.949 0-78.375l27.96-16.144c7.173-4.145 9.63-13.316 5.49-20.488L445.874 75.824c-4.137-7.168-13.316-9.633-20.492-5.492l-27.961 16.145c-30.156 17.41-67.863-4.325-67.863-39.188V15c0-8.285-6.715-15-15-15H194.07c-8.28 0-15 6.715-15 15v32.29c0 34.827-37.672 56.616-67.863 39.187l-27.96-16.145c-7.169-4.14-16.349-1.684-20.493 5.492L2.512 180.18C-1.628 187.352.828 196.527 8 200.668l27.96 16.144c30.161 17.415 30.188 60.95 0 78.375L8.005 311.332c-7.176 4.145-9.633 13.316-5.492 20.488l60.242 104.356c4.137 7.168 13.316 9.637 20.492 5.492l27.961-16.145c30.152-17.414 67.863 4.32 67.863 39.188V497c0 8.285 6.715 15 15 15h120.485c8.285 0 15-6.715 15-15v-32.29c0-34.82 37.672-56.62 67.867-39.187l27.96 16.145c7.169 4.14 16.348 1.684 20.49-5.492l60.245-104.356c4.14-7.172 1.684-16.343-5.488-20.488zM254.316 361c-57.894 0-104.992-47.102-104.992-105s47.098-105 104.992-105c57.891 0 104.989 47.102 104.989 105s-47.098 105-104.989 105zm0 0" transform="scale(.43)"/></mask><g mask="url(#prefix__a)" style="transform-origin:center" transform="scale(2.27)" fill="#ef8a57"><path d="M233.73 643.617l-3.546-2 465.43-826.535 3.546 1.996M230.184 641.617l-3.543-1.996 465.425-826.535 3.547 1.996M226.637 639.621l-3.543-1.996L688.52-188.91l3.546 1.996zm0 0"/><path d="M223.094 637.625l-3.547-1.996 465.43-826.535 3.543 1.996zm0 0"/><path d="M219.547 635.629l-3.547-2 465.43-826.535 3.547 2zm0 0M216 633.629l-3.547-1.996L677.88-194.902l3.55 1.996zm0 0M212.453 631.633l-3.547-1.996 465.426-826.535 3.547 1.996zm0 0M208.906 629.637l-3.547-1.996 465.43-826.536 3.543 1.997zm0 0"/><path d="M205.36 627.64l-3.548-1.995 465.43-826.536 3.547 1.996zm0 0"/><path d="M201.813 625.645l-3.543-2 465.425-826.532 3.547 1.996zm0 0"/><path d="M198.27 623.645l-3.547-1.997 465.425-826.535 3.547 2zm0 0"/><path d="M194.723 621.648l-3.547-1.996 465.426-826.535 3.546 1.996zm0 0M191.176 619.652l-3.547-1.996 465.426-826.535 3.547 1.996zm0 0M187.629 617.656l-3.547-2 465.43-826.531 3.543 1.996zm0 0"/><path d="M184.082 615.656l-3.547-1.996 465.43-826.535 3.547 2zm0 0"/><path d="M180.535 613.66l-3.547-1.996 465.43-826.539 3.547 2zm0 0"/><path d="M176.988 611.664l-3.547-1.996 465.43-826.54 3.547 1.997zm0 0"/><path d="M173.441 609.668l-3.543-1.996 465.426-826.54 3.547 1.997zm0 0"/><path d="M169.898 607.672l-3.546-2 465.425-826.535 3.547 1.996zm0 0"/><path d="M166.352 605.672l-3.547-1.996 465.43-826.535 3.542 1.996zm0 0M162.805 603.676l-3.547-1.996 465.43-826.54 3.546 2zm0 0M159.258 601.68l-3.547-1.996 465.426-826.54 3.55 1.997zm0 0"/><path d="M155.71 599.684l-3.546-2L617.59-228.852l3.547 1.997zm0 0"/><path d="M152.164 597.684l-3.547-1.996 465.43-826.536 3.543 1.996zm0 0"/><path d="M148.617 595.688l-3.547-1.997L610.5-232.844l3.547 1.996zm0 0"/><path d="M145.07 593.691l-3.543-1.996L606.953-234.84l3.547 1.996zm0 0"/><path d="M141.527 591.695l-3.547-1.996L603.41-236.84l3.543 2zm0 0"/><path d="M137.98 589.7l-3.546-2 465.425-826.536 3.551 1.996zm0 0"/><path d="M134.434 587.7l-3.547-1.997 465.426-826.535 3.546 1.996zm0 0M130.887 585.703l-3.547-1.996 465.43-826.535 3.543 1.996zm0 0"/><path d="M127.34 583.707l-3.547-1.996 465.43-826.535 3.547 1.996zm0 0"/><path d="M123.793 581.71l-3.547-2 465.43-826.534 3.547 2zm0 0M120.246 579.71l-3.543-1.995L582.125-248.82l3.55 1.996zm0 0"/><path d="M116.703 577.715l-3.547-1.996 465.426-826.535 3.543 1.996zm0 0"/><path d="M113.156 575.719l-3.547-1.996 465.426-826.535 3.547 1.996zm0 0"/><path d="M109.61 573.723l-3.547-2L571.487-254.81l3.547 1.996zm0 0"/><path d="M106.063 571.723l-3.547-1.996 465.43-826.532 3.542 1.996zm0 0M102.516 569.727l-3.547-1.997 465.43-826.539 3.546 2.004zm0 0M98.969 567.73l-3.547-1.996 465.426-826.539 3.55 1.996zm0 0"/><path d="M95.422 565.734l-3.547-2L557.305-262.8l3.543 1.996zm0 0M91.875 563.734l-3.543-1.996 465.426-826.535 3.547 1.996zm0 0"/><path d="M88.332 561.738l-3.547-1.996 465.426-826.535 3.547 1.996zm0 0M84.785 559.742l-3.547-1.996 465.43-826.539 3.543 2zm0 0"/><path d="M81.238 557.746l-3.547-1.996 465.43-826.54 3.547 1.997zm0 0"/><path d="M77.691 555.75l-3.546-2L539.57-272.785l3.551 1.996zm0 0"/><path d="M74.145 553.75l-3.547-1.996 465.43-826.535 3.542 1.996zm0 0M70.598 551.754l-3.547-1.996 465.43-826.535 3.546 1.996zm0 0M67.05 549.758l-3.546-1.996 465.43-826.54 3.546 2zm0 0"/><path d="M63.504 547.762l-3.543-2 465.43-826.535 3.543 1.996zm0 0M59.96 545.762l-3.546-1.996L521.84-282.77l3.55 1.997zm0 0"/><path d="M56.414 543.766l-3.547-1.996 465.426-826.536 3.547 1.996zm0 0"/><path d="M52.867 541.77l-3.547-1.997 465.426-826.535 3.547 1.996zm0 0"/><path d="M49.32 539.773l-3.547-1.996 465.43-826.535 3.543 1.996zm0 0"/><path d="M45.773 537.777l-3.546-2 465.43-826.535 3.546 2zm0 0M42.227 535.777l-3.547-1.996 465.43-826.535 3.546 1.996zm0 0M38.68 533.781l-3.543-1.996L500.563-294.75l3.546 1.996zm0 0M35.137 531.785l-3.547-1.996 465.426-826.535 3.546 1.996zm0 0"/><path d="M31.59 529.79l-3.547-2 465.426-826.532 3.547 1.996zm0 0"/><path d="M28.043 527.79l-3.547-1.997 465.43-826.535 3.543 2zm0 0"/><path d="M24.496 525.793l-3.547-1.996 465.43-826.535 3.547 1.996zm0 0"/><path d="M20.95 523.797l-3.548-1.996 465.426-826.54 3.55 2zm0 0"/><path d="M17.402 521.8l-3.547-2 465.426-826.534 3.547 1.996zm0 0"/><path d="M13.855 519.8l-3.546-1.995 465.43-826.535 3.542 1.996zm0 0M10.309 517.805l-3.543-1.996L472.19-310.727l3.547 1.997zm0 0"/><path d="M6.766 515.809l-3.547-1.996 465.426-826.54 3.546 2zm0 0"/><path d="M3.219 513.813l-3.547-1.997 465.43-826.539 3.543 1.996zm0 0"/><path d="M-.328 511.816l-3.547-2 465.426-826.535 3.55 1.996zm0 0"/><path d="M-3.875 509.816l-3.547-1.996 465.426-826.535 3.547 1.996zm0 0"/><path d="M-7.422 507.82l-3.547-1.996 465.43-826.535 3.543 1.996zm0 0"/><path d="M-10.969 505.824l-3.547-1.996 465.43-826.539 3.547 2zm0 0"/><path d="M-14.516 503.828l-3.546-2 465.43-826.535 3.546 1.996zm0 0M-18.063 501.828l-3.542-1.996L443.82-326.703l3.547 1.996zm0 0M-21.605 499.832l-3.547-1.996L440.273-328.7l3.547 1.996zm0 0"/><path d="M-25.152 497.836l-3.547-1.996 465.426-826.535 3.546 1.996zm0 0"/><path d="M-28.7 495.84l-3.546-1.996 465.43-826.535 3.543 1.996zm0 0"/><path d="M-32.246 493.844l-3.547-2 465.43-826.535 3.547 2zm0 0"/><path d="M-35.793 491.844l-3.547-1.996 465.43-826.535 3.547 1.996zm0 0"/><path d="M-39.34 489.848l-3.547-1.996 465.43-826.536 3.547 1.997zm0 0"/><path d="M-42.887 487.852l-3.543-1.997L418.996-340.68l3.547 1.996zm0 0"/><path d="M-46.43 485.855l-3.547-2 465.426-826.53 3.547 1.995zm0 0M-49.977 483.855l-3.546-1.996 465.425-826.535 3.547 2zm0 0"/><path d="M-53.523 481.86l-3.547-1.997 465.425-826.535 3.547 1.996zm0 0"/><path d="M-57.07 479.863l-3.547-1.996 465.43-826.535 3.542 1.996zm0 0M-60.617 477.867l-3.547-2 465.43-826.531 3.546 1.996zm0 0"/><path d="M-64.164 475.867l-3.547-1.996 465.43-826.535 3.547 2zm0 0"/><path d="M-67.71 473.871l-3.548-1.996 465.43-826.54 3.547 2zm0 0"/><path d="M-71.258 471.875l-3.543-1.996 465.426-826.54 3.547 1.997zm0 0"/><path d="M-74.8 469.879l-3.548-1.996 465.426-826.54 3.547 1.997zm0 0"/><path d="M-78.348 467.883l-3.547-2 465.426-826.535 3.547 1.996zm0 0"/><path d="M-81.895 465.883l-3.546-1.996 465.43-826.535 3.542 1.996zm0 0M-85.441 463.887l-3.547-1.996 465.43-826.536 3.546 1.997zm0 0M-88.988 461.89l-3.547-1.995 465.43-826.54 3.546 2zm0 0"/><path d="M-92.535 459.895l-3.547-2 465.43-826.536 3.547 1.996zm0 0"/><path d="M-96.082 457.895l-3.547-1.997 465.43-826.535 3.547 1.996zm0 0"/><path d="M-99.629 455.898l-3.543-1.996 465.426-826.535 3.547 1.996zm0 0"/><path d="M-103.172 453.902l-3.547-1.996 465.426-826.535 3.547 1.996zm0 0"/><path d="M-106.719 451.906l-3.547-1.996L355.16-376.629l3.547 2zm0 0"/><path d="M-110.266 449.91l-3.546-2 465.425-826.535 3.547 1.996zm0 0M-113.813 447.91l-3.546-1.996L348.07-380.62l3.542 1.996zm0 0M-117.36 445.914l-3.546-1.996 465.43-826.535 3.546 1.996zm0 0M-120.906 443.918l-3.547-1.996 465.43-826.535 3.546 1.996zm0 0M-124.453 441.922l-3.543-2L337.43-386.61l3.547 1.996zm0 0"/><path d="M-127.996 439.922l-3.547-1.996L333.883-388.61l3.547 2zm0 0"/><path d="M-131.543 437.926l-3.547-1.996 465.426-826.535 3.547 1.996zm0 0"/><path d="M-135.09 435.93l-3.547-1.996L326.79-392.602l3.547 1.997zm0 0M-138.637 433.934l-3.547-1.997 465.43-826.535 3.543 1.996zm0 0"/><path d="M-142.184 431.938l-3.546-2L319.7-396.595l3.546 1.996zm0 0M-145.73 429.938l-73.168-41.204 465.425-826.53 73.172 41.202zm0 0"/></g><g mask="url(#prefix__b)" style="transform-origin:center" transform="scale(2.27)"><path d="M60.648 18.965L16.195 82.973l57.801-39.285-13.351-24.723h.003" fill="#ef8a57"/><path d="M81.613 0l-7.617 43.688 55.777 15.05L94.602 0H81.613" fill="#ef7f48"/><path d="M73.316 0L60.645 18.965l13.351 24.723L81.613 0h-8.297" fill="#ef8a57"/><path d="M119.766 32.516l10.007 26.222 50.29 4.938-60.297-31.164v.004" fill="#ef7f48"/><path d="M119.766 32.512L96.539 0h-1.937l35.171 58.738-10.007-26.222v-.004" fill="#ef8a57"/><path d="M178.18 37.883l1.882 25.793-60.296-31.164 58.418 5.367-.004.004" fill="#ef7f48"/><path d="M0 99.469v14.148l84.582 11.965-68.387-42.61v-.003L0 99.469" fill="#ef8a57"/><path d="M74 43.684l10.582 81.898-6.098-55.805-4.488-26.09.004-.003" fill="#ef7f48"/><path d="M74 43.684l10.582 81.898-68.387-42.61 57.801-39.284.004-.004" fill="#ef8a57"/><path d="M129.773 58.734L78.484 69.777l89.782 33.598-38.493-44.637v-.004" fill="#ef7f48"/><path d="M129.773 58.734L78.484 69.777l-4.488-26.09 55.777 15.051v-.004" fill="#ef8a57"/><path d="M180.066 63.676l-11.8 39.699 24.992-7.504-13.196-32.195h.004" fill="#ef7f48"/><path d="M180.066 63.676l-11.8 39.699-38.493-44.637 50.29 4.938h.003" fill="#ef8a57"/><path d="M193.86 35.36l-.602 60.511-13.196-32.195 13.801-28.317h-.004" fill="#ef7f48"/><path d="M84.582 125.582l-21.453 28.395-5.629-37.762 27.082 9.367" fill="#ef8a57"/><path d="M84.582 125.582L0 113.617v5.086l63.129 35.274 21.453-28.395" fill="#ef7f48"/><path d="M78.484 69.777L57.5 116.215l44.453 48.043-23.469-94.48" fill="#ef8a57"/><path d="M78.484 69.777L57.5 116.215l27.082 9.367-6.098-55.805" fill="#ef7f48"/><path d="M168.27 103.375l-66.317 60.883 50.363-53.574 15.95-7.309h.004" fill="#ef8a57"/><path d="M168.27 103.375l-66.317 60.883-23.469-94.48 89.782 33.597h.004" fill="#ed6d2d"/><path d="M193.258 95.867l-40.942 14.817 49.329 3.75-8.387-18.563v-.004" fill="#ec6521"/><path d="M193.258 95.867l-40.942 14.817 15.95-7.309 24.992-7.504v-.004" fill="#ed6d2d"/><path d="M221.23 77.297l-19.585 37.137 68.421 13.46-48.832-50.593-.004-.004" fill="#ec6521"/><path d="M221.23 77.297l-19.585 37.137-8.387-18.563 27.976-18.57-.004-.004" fill="#ed6d2d"/><path d="M377.45 126.309l-83.419 27.015 91.653-21.539-8.23-5.476h-.005" fill="#ec6521"/><path d="M57.504 116.215l-16.438 84.89 64.895-2.648L57.5 116.215h.004" fill="#ed6d2d"/><path d="M57.504 116.215l-16.438 84.89 22.063-47.128-5.629-37.762h.004" fill="#ec6521"/><path d="M101.957 164.258l4.004 34.199 18.05 4.934-22.058-39.133h.004" fill="#ed6d2d"/><path d="M101.957 164.258l4.004 34.199L57.5 116.215l44.453 48.043h.004" fill="#ec6521"/><path d="M152.316 110.684l-28.304 92.707 75.515-20.895-47.21-71.812" fill="#ed6d2d"/><path d="M152.316 110.684l-28.304 92.707-22.059-39.133 50.363-53.574" fill="#ec6521"/><path d="M201.645 114.43l-2.118 68.066 66.391-22.625-64.273-45.437v-.004" fill="#ed6d2d"/><path d="M201.645 114.43l-2.118 68.066-47.21-71.812 49.328 3.75v-.004" fill="#ec6521"/><path d="M270.063 127.89l-4.145 31.981 8.746 8.469-4.598-40.445-.003-.004" fill="#ed6d2d"/><path d="M270.063 127.89l-4.145 31.981-64.273-45.437 68.421 13.46-.003-.003" fill="#ec6521"/><path d="M294.027 153.328l-19.363 15.012 106.617 8.11-87.25-23.126-.004.004" fill="#ed6d2d"/><path d="M294.027 153.328l-19.363 15.012-4.598-40.445 23.965 25.43-.004.003" fill="#ec6521"/><path d="M385.684 131.785l-4.403 44.664-87.25-23.125 91.653-21.539" fill="#ed6d2d"/><path d="M41.066 201.105l-24.761 24.051 95.89 8.899-71.129-32.95" fill="#ec6521"/><path d="M105.96 198.457l6.235 35.598 13.782-21.293-20.016-14.305" fill="#f25f15"/><path d="M105.96 198.457l6.235 35.598-71.129-32.95 64.895-2.648" fill="#f1570a"/><path d="M124.016 203.387l1.96 9.375 55.524 38.605-57.488-47.976.004-.004" fill="#f25f15"/><path d="M124.016 203.387l1.96 9.375-20.015-14.305 18.05 4.934.005-.004" fill="#f1570a"/><path d="M199.527 182.492L181.5 251.367l74.55-27.187-56.523-41.684v-.004" fill="#f25f15"/><path d="M199.527 182.492L181.5 251.367l-57.488-47.976 75.515-20.895v-.004" fill="#f1570a"/><path d="M265.918 159.875l-9.867 64.305-8.86 9.074 18.727-73.383v.004" fill="#f25f15"/><path d="M265.918 159.875l-9.867 64.305-56.524-41.684 66.391-22.625v.004" fill="#f1570a"/><path d="M274.664 168.34l-27.473 64.914 97.477-13.176-70.004-51.738" fill="#f25f15"/><path d="M274.664 168.34l-27.473 64.914 18.727-73.383 8.746 8.469" fill="#f1570a"/><path d="M381.281 176.45l-36.613 43.628 41.621 30.168-5.008-73.797" fill="#f25f15"/><path d="M381.281 176.45l-36.613 43.628-70.004-51.738 106.617 8.11" fill="#f1570a"/><path d="M387.035 160.707l-.746 89.54 25.477-.88-24.73-88.656v-.004" fill="#f25f15"/><path d="M387.035 160.707l-.746 89.54-5.008-73.798 5.754-15.738v-.004" fill="#f1570a"/><path d="M444.664 199.16l-32.898 50.207 37.035-50.066-4.137-.14" fill="#f25f15"/><path d="M444.664 199.16l-32.898 50.207-24.73-88.656 57.628 38.45" fill="#f1570a"/><path d="M0 281.723l68.941-26.172-52.636-30.395L0 253.012v28.71" fill="#f25f15"/><path d="M112.191 234.05l-43.25 21.5 53.61-14.76-10.356-6.735-.004-.004" fill="#f1570a"/><path d="M112.191 234.05l-43.25 21.5-52.636-30.394 95.89 8.899-.004-.004" fill="#f25f15"/><path d="M125.977 212.762l-3.426 28.027 63.726 24.543-60.3-52.57" fill="#f1570a"/><path d="M125.977 212.762l-3.426 28.027-10.356-6.734 13.782-21.293" fill="#df520b"/><path d="M181.5 251.363l4.777 13.969 32.582.102-37.359-14.067v-.004" fill="#c64a0c"/><path d="M181.5 251.363l4.777 13.969-60.3-52.57 55.523 38.605v-.004" fill="#df520b"/><path d="M256.055 224.18l-37.196 41.254 63.04-10.407-25.848-30.847h.004" fill="#c64a0c"/><path d="M256.055 224.18l-37.196 41.254-37.359-14.067 74.55-27.187h.005" fill="#df520b"/><path d="M247.188 233.254l34.71 21.773 30.946-8.047-65.653-13.726h-.004" fill="#c64a0c"/><path d="M247.188 233.254l34.71 21.773-25.847-30.847-8.86 9.074h-.004" fill="#df520b"/><path d="M344.668 220.074l-31.824 26.906 68.886 7.961-37.062-34.863v-.004" fill="#c64a0c"/><path d="M344.668 220.074l-31.824 26.906-65.653-13.726 97.477-13.176v-.004" fill="#df520b"/><path d="M386.293 250.246l-4.563 4.695-11.34 18.692 15.9-23.387h.003" fill="#c64a0c"/><path d="M386.293 250.246l-4.563 4.695-37.062-34.863 41.621 30.168h.004" fill="#df520b"/><path d="M411.766 249.371l-41.375 24.262 105.015-22.13-63.64-2.136v.004" fill="#c64a0c"/><path d="M411.766 249.371l-41.375 24.262 15.898-23.387 25.477-.879v.004" fill="#df520b"/><path d="M448.8 199.305l26.606 52.199-63.64-2.137 37.035-50.066v.004" fill="#c64a0c"/><path d="M68.941 255.547l-59.84 37.547 70.91-10.418-11.07-27.125v-.004" fill="#df520b"/><path d="M0 281.723v10.437l9.102.934 59.824-37.54L0 281.724" fill="#c64a0c"/><path d="M122.55 240.79l-42.538 41.886 79.324 46.367-36.785-88.254" fill="#df520b"/><path d="M122.55 240.79l-42.538 41.886-11.07-27.125 53.609-14.762" fill="#c64a0c"/><path d="M186.285 265.332l-26.95 63.711-.89-8.758 27.832-54.953h.008" fill="#b4450d"/><path d="M186.285 265.332l-26.95 63.711-36.784-88.254 63.726 24.543h.008" fill="#c64a0c"/><path d="M218.863 265.434l-60.418 54.851 90.575-25.418-30.16-29.433h.003" fill="#b4450d"/><path d="M218.863 265.434l-60.418 54.851 27.832-54.953 32.582.102h.004" fill="#a73f0b"/><path d="M281.902 255.023l-32.882 39.844 58.78 15.508-25.902-55.348.004-.004" fill="#b4450d"/><path d="M281.902 255.023l-32.882 39.844-30.16-29.433 63.038-10.407.004-.004" fill="#a73f0b"/><path d="M312.844 246.977l-5.043 63.398 32.562-3.5-27.52-59.895v-.003" fill="#b4450d"/><path d="M312.844 246.977l-5.043 63.398-25.903-55.348 30.946-8.047v-.003" fill="#a73f0b"/><path d="M381.73 254.941l-41.367 51.934 53.078-21.16-11.71-30.774" fill="#b4450d"/><path d="M381.73 254.941l-41.367 51.934-27.52-59.895 68.887 7.961" fill="#a73f0b"/><path d="M370.395 273.625l23.046 12.09 23.489 3.41-46.54-15.492.005-.008" fill="#b4450d"/><path d="M370.395 273.625l23.046 12.09-11.71-30.774-11.34 18.692.004-.008" fill="#a73f0b"/><path d="M475.406 251.504l-58.476 37.621 49.297 13.293 9.18-50.914" fill="#b4450d"/><path d="M475.406 251.504l-58.476 37.621-46.54-15.492 105.016-22.13" fill="#a73f0b"/><path d="M80.008 282.676L21.64 325.53l68.879 11.336-10.508-54.191h-.004" fill="#b4450d"/><path d="M80.008 282.676L21.64 325.53 9.1 293.094l70.91-10.418h-.003" fill="#a73f0b"/><path d="M159.336 329.035l-68.816 7.832 57.12 16.375 11.696-24.199v-.008" fill="#b4450d"/><path d="M159.336 329.035l-68.816 7.832-10.508-54.191 79.324 46.367v-.008" fill="#a73f0b"/><path d="M158.445 320.285l-10.804 32.957 31.75-24.816-20.946-8.14" fill="#b4450d"/><path d="M158.445 320.285l-10.804 32.957 11.695-24.199-.89-8.758" fill="#a73f0b"/><path d="M249.023 294.867l-69.632 33.559 64.98 23.582 4.649-57.14h.003" fill="#94390b"/><path d="M249.023 294.867l-69.632 33.559-20.946-8.14 90.575-25.419h.003" fill="#802f07"/><path d="M307.8 310.375l-63.429 41.633 72.45-10.543-9.02-31.09" fill="#94390b"/><path d="M307.8 310.375l-63.429 41.633 4.649-57.14 58.78 15.507" fill="#802f07"/><path d="M340.363 306.875l-23.543 34.59 31.774 17.617-8.23-52.207" fill="#94390b"/><path d="M340.363 306.875l-23.543 34.59-9.02-31.09 32.563-3.5" fill="#802f07"/><path d="M393.445 285.715l-44.851 73.367 22.656-23.332 22.191-50.035h.004" fill="#94390b"/><path d="M393.445 285.715l-44.851 73.367-8.23-52.207 53.077-21.16h.004" fill="#802f07"/><path d="M416.93 289.125l-45.68 46.625 53.68 5.016-8-51.641" fill="#94390b"/><path d="M416.93 289.125l-45.68 46.625 22.191-50.035 23.489 3.41" fill="#802f07"/><path d="M21.64 325.523l12.489 68.618 60.715-29.465L21.64 325.53v-.008" fill="#94390b"/><path d="M90.52 336.867l4.324 27.809 56.312 42.418-60.636-70.227" fill="#802f07"/><path d="M90.52 336.867l4.324 27.809L21.64 325.53l68.879 11.336" fill="#94390b"/><path d="M147.645 353.242l3.511 53.852 38.832 16.414-42.347-70.266h.004" fill="#802f07"/><path d="M147.645 353.242l3.511 53.852-60.636-70.227 57.12 16.375h.005" fill="#94390b"/><path d="M179.387 328.426l10.601 95.082 43.645-43.043-54.242-52.04h-.004" fill="#802f07"/><path d="M179.387 328.426l10.601 95.082-42.347-70.266 31.75-24.816h-.004" fill="#94390b"/><path d="M244.367 352.016l-10.734 28.449 48.578 22.668-37.84-51.125-.004.008" fill="#802f07"/><path d="M244.367 352.016l-10.734 28.449-54.242-52.04 64.98 23.583-.004.008" fill="#94390b"/><path d="M316.82 341.465l-34.61 61.668 27.43-15.168 7.18-46.5" fill="#802f07"/><path d="M316.82 341.465l-34.61 61.668-37.839-51.125 72.45-10.543" fill="#802106"/><path d="M94.852 364.676l-65.66 77.84 76.878-6.223-11.226-71.617h.008" fill="#771f07"/><path d="M94.852 364.676l-65.66 77.84 4.937-48.375 60.715-29.465h.008" fill="#802106"/><path d="M151.148 407.102l-45.078 29.191 25.985 13.406 19.101-42.605-.008.008" fill="#771f07"/><path d="M151.148 407.102l-45.078 29.191-11.226-71.617 56.312 42.418-.008.008" fill="#802106"/><path d="M189.988 423.508l-57.933 26.191 36.156 3.719 21.777-29.91" fill="#771f07"/><path d="M189.988 423.508l-57.933 26.191 19.101-42.605 38.832 16.414" fill="#802106"/><path d="M233.637 380.465l-65.426 72.953 50.5-26.316 14.922-46.637h.004" fill="#771f07"/><path d="M233.637 380.465l-65.426 72.953 21.777-29.91 43.645-43.043h.004" fill="#802106"/><path d="M282.21 403.133l-63.5 23.969 14.923-46.637 48.578 22.668" fill="#771f07"/><path d="M106.07 436.293L49.88 482.359l92.617 5.868-36.426-51.934" fill="#802106"/><path d="M106.07 436.293L49.88 482.359 29.19 442.516l76.88-6.223" fill="#771f07"/><path d="M132.05 449.7l10.446 38.527-36.426-51.934 25.985 13.406h-.004" fill="#802106"/><path d="M218.71 427.11l-20.562 55.265-29.937-28.957 50.5-26.316v.007" fill="#771f07"/></g></svg>